<svg width="740" height="797" viewBox="0 0 740 797" fill="none" xmlns="http://www.w3.org/2000/svg">
<path d="M740 609.545H0V609.943H740V609.545Z" fill="#EBEBEB"/>
<path d="M126.658 624.72H77.6409V625.118H126.658V624.72Z" fill="#EBEBEB"/>
<path d="M266.148 620.401H227.091V620.798H266.148V620.401Z" fill="#EBEBEB"/>
<path d="M201.117 634.125H133.156V634.523H201.117V634.125Z" fill="#EBEBEB"/>
<path d="M665.852 636.851H633.884V637.249H665.852V636.851Z" fill="#EBEBEB"/>
<path d="M626.691 636.851H579.376V637.249H626.691V636.851Z" fill="#EBEBEB"/>
<path d="M491.848 630.124H410.271V630.522H491.848V630.124Z" fill="#EBEBEB"/>
<path d="M350.76 538.453H64.9868C62.7481 538.449 60.6024 537.488 59.0207 535.782C57.4391 534.075 56.5508 531.763 56.5508 529.351V96.692C56.5703 94.2946 57.4672 92.0024 59.0467 90.3131C60.6262 88.6239 62.7608 87.674 64.9868 87.6699H350.76C353.001 87.6699 355.151 88.6289 356.736 90.3358C358.32 92.0427 359.211 94.3577 359.211 96.7717V529.351C359.211 531.765 358.32 534.08 356.736 535.787C355.151 537.494 353.001 538.453 350.76 538.453ZM64.9868 87.9887C62.8462 87.9929 60.7946 88.9118 59.2824 90.5435C57.7701 92.1752 56.9208 94.3865 56.9208 96.692V529.351C56.9208 531.657 57.7701 533.868 59.2824 535.5C60.7946 537.132 62.8462 538.05 64.9868 538.055H350.76C352.902 538.05 354.955 537.132 356.47 535.501C357.984 533.87 358.837 531.658 358.841 529.351V96.692C358.837 94.385 357.984 92.1738 356.47 90.5425C354.955 88.9112 352.902 87.9929 350.76 87.9887H64.9868Z" fill="#EBEBEB"/>
<path d="M670.899 538.453H385.111C382.871 538.449 380.724 537.489 379.14 535.783C377.556 534.077 376.664 531.764 376.66 529.351V96.692C376.683 94.2932 377.584 92.0009 379.165 90.3121C380.747 88.6233 382.883 87.674 385.111 87.6699H670.899C673.122 87.6782 675.253 88.6299 676.829 90.3187C678.406 92.0075 679.301 94.2974 679.32 96.692V529.351C679.32 531.76 678.434 534.07 676.855 535.776C675.277 537.482 673.135 538.445 670.899 538.453ZM385.111 87.9887C382.969 87.9929 380.916 88.9112 379.401 90.5425C377.887 92.1738 377.034 94.385 377.03 96.692V529.351C377.034 531.658 377.887 533.87 379.401 535.501C380.916 537.132 382.969 538.05 385.111 538.055H670.899C673.041 538.05 675.094 537.132 676.608 535.501C678.123 533.87 678.976 531.658 678.98 529.351V96.692C678.976 94.385 678.123 92.1738 676.608 90.5425C675.094 88.9112 673.041 87.9929 670.899 87.9887H385.111Z" fill="#EBEBEB"/>
<path d="M127.635 355.446L611.062 355.446V129.592L127.635 129.592V355.446Z" fill="#E6E6E6"/>
<path d="M120.975 355.446L608.162 355.446V129.592L120.975 129.592V355.446Z" fill="#F5F5F5"/>
<path d="M596.203 342.423V142.615L132.919 142.615V342.423H596.203Z" fill="#FAFAFA"/>
<path d="M329.907 342.423L277.071 142.631H240.204L293.04 342.423H329.907Z" fill="white"/>
<path d="M282.576 342.423L229.755 142.631H204.358L257.194 342.423H282.576Z" fill="white"/>
<path d="M551.714 342.423L498.893 142.631H462.012L514.848 342.423H551.714Z" fill="white"/>
<path d="M504.399 342.423L451.563 142.631H426.181L479.002 342.423H504.399Z" fill="white"/>
<path d="M235.335 342.423V142.615H221.068V342.423H235.335Z" fill="#E6E6E6"/>
<path d="M517.615 342.439V142.631H503.348V342.439H517.615Z" fill="#E6E6E6"/>
<path d="M232.76 350.696V132.939H214.733V350.696H232.76Z" fill="#F5F5F5"/>
<path d="M515.055 350.696V132.939H497.028V350.696H515.055Z" fill="#F5F5F5"/>
<path d="M134.192 342.439V142.631H132.919V342.439H134.192Z" fill="#E6E6E6"/>
<path d="M115.943 112.855H624.057C624.449 112.855 624.826 113.023 625.103 113.322C625.381 113.621 625.537 114.026 625.537 114.449C625.537 114.872 625.381 115.277 625.103 115.576C624.826 115.875 624.449 116.043 624.057 116.043H115.943C115.551 116.043 115.174 115.875 114.897 115.576C114.619 115.277 114.463 114.872 114.463 114.449C114.463 114.026 114.619 113.621 114.897 113.322C115.174 113.023 115.551 112.855 115.943 112.855Z" fill="#E6E6E6"/>
<path d="M611.048 123.806C611.599 123.806 612.127 123.571 612.518 123.153C612.909 122.735 613.131 122.168 613.134 121.574V116.792C613.134 116.196 612.915 115.624 612.523 115.203C612.132 114.781 611.601 114.545 611.048 114.545C610.497 114.549 609.97 114.788 609.582 115.209C609.193 115.63 608.976 116.199 608.976 116.792V121.574C608.976 122.166 609.194 122.734 609.582 123.152C609.971 123.571 610.498 123.806 611.048 123.806Z" fill="#E6E6E6"/>
<path d="M139.194 123.806C139.745 123.806 140.274 123.571 140.664 123.153C141.055 122.735 141.277 122.168 141.281 121.574V116.792C141.281 116.196 141.061 115.624 140.67 115.203C140.278 114.781 139.748 114.545 139.194 114.545C138.643 114.549 138.116 114.788 137.728 115.209C137.34 115.63 137.122 116.199 137.122 116.792V121.574C137.122 122.166 137.34 122.734 137.729 123.152C138.118 123.571 138.645 123.806 139.194 123.806Z" fill="#E6E6E6"/>
<path opacity="0.6" d="M116.432 171.004L603.411 171.004V114.513L116.432 114.513V171.004Z" fill="#E0E0E0"/>
<path d="M288.245 528.73C293.499 526.817 297.302 521.365 293.972 515.77C288.452 506.525 302.26 504.612 298.412 489.103C292.951 467.265 275.976 486.186 271.772 465.193C268.709 449.938 244.925 439.944 243.993 460.028C242.972 482.009 232.745 467.648 230.466 492.1C228.897 508.996 251.186 511.451 244.57 516.743C239.701 520.6 236.815 527.327 243.608 531.934C252.873 538.198 244.126 543.092 250.431 547.459C256.736 551.827 257.742 544.861 267.51 548.256C276.242 551.285 283.642 541.992 281.91 536.174C280.238 530.802 282.976 530.658 288.245 528.73Z" fill="#E6E6E6"/>
<path d="M237.762 538.772C237.762 538.772 238.472 609.546 266.015 609.546C293.558 609.546 294.268 538.772 294.268 538.772H237.762Z" fill="#F0F0F0"/>
<path d="M211.551 528.73C216.79 526.817 220.609 521.365 217.264 515.77C211.744 506.525 225.567 504.612 221.704 489.103C216.228 467.265 199.252 486.186 195.064 465.193C192 449.938 168.217 439.944 167.284 460.028C166.263 482.009 156.036 467.648 153.757 492.1C152.188 508.996 174.477 511.451 167.862 516.743C162.992 520.6 160.106 527.327 166.914 531.934C176.164 538.198 167.432 543.092 173.722 547.459C180.012 551.827 181.034 544.861 190.802 548.256C199.548 551.285 206.948 541.992 205.202 536.174C203.53 530.802 206.268 530.658 211.551 528.73Z" fill="#E6E6E6"/>
<path d="M161.054 538.772C161.054 538.772 161.779 609.546 189.307 609.546C216.835 609.546 217.56 538.772 217.56 538.772H161.054Z" fill="#F0F0F0"/>
<path d="M452.362 460.475C456.328 413.181 459.096 336.414 456.95 310.734C456.916 310.3 456.8 309.878 456.609 309.495C456.419 309.111 456.157 308.773 455.84 308.503C455.414 308.142 454.899 307.924 454.359 307.877C453.819 307.83 453.278 307.955 452.804 308.238C452.33 308.52 451.944 308.947 451.694 309.465C451.445 309.983 451.342 310.568 451.4 311.149C451.785 323.901 452.214 355.669 449.92 410.534C448.751 437.84 447.064 456.537 448.218 460.475H452.362Z" fill="#F0F0F0"/>
<path d="M464.587 362.539C474.088 349.787 493.476 340.606 513.234 340.654C520.99 340.654 489.628 355.558 476.59 371.992C466.466 384.744 455.041 406.231 451.163 418.138C453.664 393.064 455.1 375.355 464.587 362.539Z" fill="#F0F0F0"/>
<path d="M444.74 362.412C435.357 348.321 413.66 337.481 390.202 336.254C380.982 335.776 416.043 353.453 429.111 371.577C439.279 385.652 449.698 408.988 452.554 421.772C453.25 395.312 454.138 376.503 444.74 362.412Z" fill="#F0F0F0"/>
<path d="M464.587 383.118C474.088 370.366 493.476 361.184 513.234 361.232C520.99 361.232 489.628 376.136 476.59 392.57C466.466 405.322 455.041 426.809 451.163 438.796C453.664 413.643 455.1 395.934 464.587 383.118Z" fill="#F0F0F0"/>
<path d="M444.74 384.154C435.357 370.063 413.66 359.224 390.202 357.996C380.982 357.518 416.043 375.196 429.111 393.319C439.279 407.41 449.698 430.731 452.554 443.514C453.25 416.958 454.138 398.229 444.74 384.154Z" fill="#F0F0F0"/>
<path d="M462.885 314.129C469.101 304.565 482.406 297.169 496.303 296.165C501.764 295.767 480.245 307.897 471.661 320.075C464.986 329.639 457.72 345.292 455.381 353.884C456.284 336.174 456.654 323.582 462.885 314.129Z" fill="#F0F0F0"/>
<path d="M450.512 318.146C443.896 308.216 428.608 300.612 412.032 299.72C405.535 299.385 430.236 311.85 439.456 324.618C446.62 334.533 453.96 350.983 455.973 359.989C456.506 341.291 457.142 328.077 450.512 318.146Z" fill="#F0F0F0"/>
<path d="M465.016 326.483C473.052 315.628 489.466 307.913 506.204 307.945C512.776 307.945 486.224 320.569 475.124 334.485C466.54 345.292 456.876 363.48 453.576 373.57C455.84 352.274 456.98 337.322 465.016 326.483Z" fill="#F0F0F0"/>
<path d="M448.692 332.253C440.729 320.394 422.362 311.149 402.56 310.113C394.76 309.698 424.434 324.682 435.505 340.016C444 351.939 452.88 371.689 455.307 382.56C455.84 360.053 456.639 344.192 448.692 332.253Z" fill="#F0F0F0"/>
<path d="M465.549 341.53C474.222 329.83 491.937 321.494 509.949 321.542C517.038 321.542 488.4 335.154 476.486 350.234C467.236 361.902 456.802 381.508 453.25 392.395C455.574 369.425 456.876 353.23 465.549 341.53Z" fill="#F0F0F0"/>
<path d="M447.434 347.938C438.554 334.692 418.218 324.506 396.152 323.359C387.494 322.897 420.438 339.522 432.737 356.562C442.298 369.808 452.096 391.741 454.789 403.76C455.426 378.798 456.269 361.2 447.434 347.938Z" fill="#F0F0F0"/>
<path d="M425.663 452.489L427.143 465.767C427.222 467.202 427.807 468.55 428.778 469.536C429.749 470.523 431.032 471.073 432.367 471.075H469.16C470.495 471.073 471.779 470.523 472.75 469.536C473.721 468.55 474.305 467.202 474.384 465.767L475.864 452.489C475.905 451.723 475.799 450.957 475.555 450.237C475.311 449.517 474.932 448.859 474.443 448.302C473.954 447.745 473.364 447.302 472.71 447C472.056 446.697 471.352 446.542 470.64 446.543H430.887C430.176 446.542 429.471 446.697 428.817 447C428.163 447.302 427.574 447.745 427.084 448.302C426.595 448.859 426.217 449.517 425.972 450.237C425.728 450.957 425.622 451.723 425.663 452.489Z" fill="#E6E6E6"/>
<path d="M423.472 455.294H478.04C478.426 455.293 478.799 455.141 479.088 454.865C479.377 454.589 479.562 454.209 479.609 453.796L480.911 441.139C480.934 440.903 480.91 440.663 480.842 440.437C480.774 440.21 480.662 440.002 480.514 439.824C480.366 439.647 480.186 439.505 479.984 439.408C479.782 439.31 479.564 439.26 479.342 439.259H422.17C421.949 439.26 421.73 439.31 421.529 439.408C421.327 439.505 421.146 439.647 420.998 439.824C420.851 440.002 420.739 440.21 420.67 440.437C420.602 440.663 420.578 440.903 420.601 441.139L421.904 453.796C421.95 454.209 422.136 454.589 422.425 454.865C422.714 455.141 423.086 455.293 423.472 455.294Z" fill="#F5F5F5"/>
<path d="M341.791 609.545H365.501V471.075H341.791V609.545Z" fill="#E6E6E6"/>
<path d="M348.895 609.546H341.791V583.037H356.34L348.895 609.546Z" fill="#F0F0F0"/>
<path d="M637.155 609.545H660.864V471.075H637.155V609.545Z" fill="#E6E6E6"/>
<path d="M341.791 593.287H643.371V471.075L341.791 471.075V593.287Z" fill="#F0F0F0"/>
<path d="M636.252 609.546H643.356V583.037H628.808L636.252 609.546Z" fill="#F0F0F0"/>
<path d="M347.297 528.586H637.85V479.682L347.297 479.682V528.586Z" fill="#E6E6E6"/>
<path d="M389.876 494.873H590.52C597.446 494.873 604.077 488.832 608.857 478.184H371.554C376.32 488.832 382.95 494.873 389.876 494.873Z" fill="#F0F0F0"/>
<path d="M347.297 585.38H637.85V536.476H347.297V585.38Z" fill="#E6E6E6"/>
<path d="M389.876 551.667H590.52C597.446 551.667 604.077 545.642 608.857 534.994H371.554C376.32 545.642 382.95 551.667 389.876 551.667Z" fill="#F0F0F0"/>
<path d="M639.715 438.621C639.715 438.621 638.413 471.075 588.714 471.075C539.016 471.075 537.728 438.621 537.728 438.621H639.715Z" fill="#F5F5F5"/>
<path d="M639.715 421.772C639.715 421.772 638.413 454.29 588.714 454.29C539.016 454.29 537.728 421.836 537.728 421.836L639.715 421.772Z" fill="#F5F5F5"/>
<path d="M370 681.531C528.482 681.531 656.957 673.452 656.957 663.487C656.957 653.521 528.482 645.443 370 645.443C211.518 645.443 83.0428 653.521 83.0428 663.487C83.0428 673.452 211.518 681.531 370 681.531Z" fill="#F5F5F5"/>
<path d="M544.492 215.78C535.612 221.008 532.652 236.502 536.811 243.244C521.419 248.218 529.411 276.718 554.571 278.312C579.731 279.906 598.882 270.008 586.524 248.871C598.749 231.13 593.125 211.317 582.41 213.5C570.91 188.682 532.4 189.415 544.492 215.78Z" fill="#263238"/>
<path d="M571.28 280.225C567.399 280.212 563.594 279.066 560.269 276.91C560.216 276.889 560.167 276.856 560.128 276.813C560.088 276.77 560.057 276.717 560.038 276.66C560.019 276.603 560.012 276.542 560.017 276.481C560.022 276.42 560.04 276.362 560.069 276.309C560.098 276.257 560.137 276.212 560.183 276.178C560.23 276.143 560.283 276.121 560.339 276.111C560.395 276.101 560.452 276.105 560.507 276.122C560.561 276.139 560.611 276.168 560.654 276.208C564.942 278.973 570.008 279.988 574.932 279.069C579.856 278.151 584.311 275.36 587.486 271.203C591.526 265.816 593.406 257.176 586.346 249.11C586.312 249.072 586.286 249.026 586.268 248.976C586.25 248.927 586.242 248.873 586.243 248.82C586.245 248.767 586.256 248.714 586.276 248.666C586.296 248.617 586.325 248.573 586.361 248.537C586.397 248.5 586.439 248.471 586.486 248.452C586.532 248.433 586.581 248.424 586.631 248.426C586.68 248.427 586.729 248.439 586.774 248.461C586.819 248.483 586.86 248.514 586.894 248.552C594.205 257.001 592.296 266.087 588.063 271.713C586.013 274.367 583.448 276.504 580.548 277.974C577.649 279.445 574.485 280.213 571.28 280.225Z" fill="#263238"/>
<path d="M534.028 248.536C533.953 248.534 533.88 248.507 533.819 248.458C533.758 248.41 533.712 248.343 533.688 248.265C529.751 236.119 535.02 219.812 544.329 215.349C544.42 215.315 544.52 215.316 544.61 215.354C544.699 215.392 544.773 215.464 544.818 215.557C544.837 215.605 544.848 215.656 544.849 215.709C544.85 215.762 544.841 215.814 544.823 215.863C544.805 215.912 544.779 215.956 544.745 215.994C544.711 216.032 544.67 216.062 544.625 216.083C535.627 220.386 530.551 236.199 534.384 247.963C534.4 248.013 534.407 248.066 534.403 248.119C534.4 248.172 534.387 248.224 534.365 248.271C534.343 248.319 534.312 248.361 534.275 248.396C534.237 248.43 534.194 248.456 534.147 248.473L534.028 248.536Z" fill="#263238"/>
<path d="M531.616 230.987H531.483C531.393 230.947 531.32 230.873 531.279 230.778C531.238 230.684 531.231 230.576 531.261 230.476C533.925 222.873 538.957 217.087 544.374 215.365C544.468 215.336 544.569 215.348 544.655 215.398C544.741 215.449 544.805 215.535 544.833 215.636C544.86 215.738 544.849 215.847 544.802 215.939C544.755 216.032 544.675 216.101 544.581 216.13C539.386 217.724 534.546 223.383 531.956 230.763C531.925 230.832 531.877 230.889 531.817 230.929C531.756 230.968 531.687 230.988 531.616 230.987Z" fill="#263238"/>
<path d="M552.336 654.99L543.782 655.006L542.346 620.401L556.746 620.783L552.336 654.99Z" fill="#FFB573"/>
<path d="M537.462 356.37C537.462 356.37 536.707 452.409 534.828 494.22C534.754 495.462 534.754 496.707 534.828 497.95C537.64 539.856 542.302 620.401 542.302 620.401L556.791 620.799C556.791 620.799 569.415 556.481 561.601 498.22C574.166 432.325 580.93 373.522 569.548 356.354L537.462 356.37Z" fill="#407BFF"/>
<path opacity="0.2" d="M561.734 394.515C557.294 410.551 561.616 462.101 563.91 485.883C567.032 468.7 569.696 452.17 571.665 436.931L561.734 394.515Z" fill="black"/>
<path d="M542.82 650.527H553.934C554.168 650.518 554.397 650.605 554.573 650.771C554.749 650.937 554.859 651.169 554.882 651.42L556.006 661.223C556.012 661.526 555.962 661.828 555.858 662.11C555.755 662.392 555.6 662.649 555.402 662.866C555.205 663.083 554.97 663.255 554.71 663.372C554.451 663.49 554.172 663.55 553.89 663.55C548.991 663.55 546.653 663.168 540.481 663.184C536.678 663.184 534.384 663.598 529.13 663.598C523.876 663.598 523.876 658.179 526.081 657.684C535.982 655.469 537.255 654.241 540.703 651.308C541.309 650.802 542.053 650.527 542.82 650.527Z" fill="#263238"/>
<path d="M546.475 285.693C545.928 288.992 545.306 292.069 544.64 295.257C543.974 298.445 543.293 301.633 542.509 304.821C540.955 311.197 539.342 317.445 537.21 323.757C536.141 327.021 534.896 330.214 533.481 333.321C532.697 335.046 531.791 336.703 530.772 338.279C530.476 338.709 530.21 339.124 529.825 339.602C529.457 340.109 529.046 340.579 528.597 341.004C527.462 342.159 526.094 343.016 524.601 343.507C523.035 344.017 521.375 344.088 519.776 343.714C518.518 343.4 517.317 342.862 516.224 342.12C514.565 340.977 513.095 339.544 511.873 337.88C509.774 335.067 508.101 331.915 506.915 328.539C506.655 327.822 506.632 327.03 506.851 326.296C507.07 325.563 507.517 324.933 508.117 324.514C508.717 324.094 509.433 323.91 510.144 323.993C510.855 324.076 511.518 324.421 512.021 324.969L512.198 325.176C514.035 327.266 516.014 329.205 518.118 330.978C518.941 331.655 519.854 332.192 520.827 332.572C521.182 332.668 521.434 332.668 521.463 332.572C521.493 332.477 521.256 332.413 521.049 332.429C520.842 332.445 520.708 332.524 520.768 332.429C520.837 332.29 520.916 332.157 521.004 332.03C521.151 331.837 521.28 331.629 521.389 331.409C522.009 330.311 522.554 329.165 523.017 327.981C524.095 325.251 525.043 322.463 525.859 319.629C527.546 313.795 529.085 307.722 530.417 301.617C531.749 295.512 533.066 289.279 534.25 283.19C534.615 281.507 535.572 280.041 536.919 279.102C538.266 278.162 539.899 277.822 541.474 278.152C543.05 278.482 544.445 279.457 545.366 280.873C546.288 282.288 546.664 284.033 546.416 285.74L546.475 285.693Z" fill="#FFB573"/>
<path d="M533.022 343.332C533.022 347.253 589.765 348.018 589.765 342.837L560.772 334.867L533.022 343.332Z" fill="#263238"/>
<path d="M543.441 275.411C558.402 272.716 573.687 272.878 588.596 275.89C589.471 276.039 590.308 276.379 591.055 276.89C591.803 277.401 592.445 278.071 592.943 278.86C593.441 279.648 593.784 280.539 593.95 281.475C594.116 282.412 594.102 283.375 593.909 284.306C585.888 322.992 586.347 335.999 587.116 356.371H537.477C534.991 322.387 533.673 302.988 533.348 291.973C533.081 283.573 535.76 276.639 543.441 275.411Z" fill="#FFB573"/>
<path opacity="0.2" d="M588.448 286.649C588.136 292.048 588.799 297.462 590.402 302.589C591.038 298.907 591.778 294.954 592.622 290.634L588.448 286.649Z" fill="black"/>
<path d="M572.301 247.166C570.821 254.896 569.474 269.099 574.506 274.264C574.506 274.264 572.538 282.122 559.188 282.122C544.492 282.122 552.158 274.264 552.158 274.264C560.18 272.191 559.973 265.783 558.582 259.774L572.301 247.166Z" fill="#FFB573"/>
<path opacity="0.2" d="M566.707 252.314L558.582 259.822C558.927 261.222 559.159 262.651 559.277 264.094C562.341 263.616 566.544 259.997 566.87 256.538C567.052 255.131 566.997 253.7 566.707 252.314Z" fill="black"/>
<path d="M580.056 233.744C577.304 246.353 576.401 251.756 569.386 257.192C558.848 265.385 545.054 259.009 544.226 245.763C543.486 233.856 548.088 215.222 560.506 212.289C563.233 211.627 566.072 211.726 568.754 212.577C571.436 213.428 573.871 215.002 575.83 217.151C577.788 219.3 579.204 221.953 579.944 224.856C580.684 227.76 580.722 230.82 580.056 233.744Z" fill="#FFB573"/>
<path d="M575.587 214.776C563.184 216.258 566.958 241.156 576.282 243.563C587.205 237.809 593.939 215.955 575.587 214.776Z" fill="#263238"/>
<path d="M636.296 632.196L627.727 635.002L615.221 606.788L628.408 602.915L636.296 632.196Z" fill="#FFB573"/>
<path d="M625.256 632.18L636.267 627.59C636.46 627.51 636.672 627.506 636.867 627.579C637.062 627.652 637.227 627.797 637.332 627.988L642.261 636.946C642.379 637.17 642.451 637.418 642.472 637.674C642.493 637.93 642.463 638.188 642.382 638.43C642.302 638.672 642.175 638.893 642.008 639.077C641.841 639.261 641.64 639.404 641.417 639.497C637.554 641.091 635.69 641.904 630.85 643.928C627.89 645.171 623.243 649.316 619.128 651.021C615.014 652.727 613.208 648.678 614.688 647.275C618.698 643.506 621.857 638.802 623.924 633.519C624.049 633.21 624.232 632.932 624.461 632.701C624.69 632.471 624.96 632.294 625.256 632.18Z" fill="#263238"/>
<path d="M551.093 356.371C551.093 356.371 569.341 456.904 576.253 496.643C583.401 538.087 615.251 606.724 615.251 606.724L628.467 602.835C628.467 602.835 610.367 529.415 601.931 493.024C600.273 427.128 602.227 373.474 587.131 356.307L551.093 356.371Z" fill="#407BFF"/>
<path d="M560.639 233.664C560.476 234.701 559.84 235.45 559.159 235.258C558.478 235.067 558.152 234.206 558.315 233.17C558.478 232.134 559.129 231.385 559.795 231.497C560.461 231.608 560.816 232.628 560.639 233.664Z" fill="#263238"/>
<path d="M549.761 231.672C549.598 232.708 548.947 233.457 548.281 233.266C547.615 233.075 547.274 232.23 547.437 231.178C547.6 230.126 548.251 229.393 548.917 229.584C549.583 229.775 549.924 230.636 549.761 231.672Z" fill="#263238"/>
<path d="M549.184 229.695L546.978 228.548C546.978 228.548 547.866 230.715 549.184 229.695Z" fill="#263238"/>
<path d="M552.81 234.159C551.588 236.363 550.094 238.379 548.37 240.152C548.801 240.617 549.321 240.976 549.893 241.204C550.465 241.433 551.076 241.525 551.685 241.475L552.81 234.159Z" fill="#ED893E"/>
<path d="M556.273 246.496C555.776 246.496 555.281 246.448 554.793 246.353C554.756 246.347 554.72 246.333 554.688 246.312C554.656 246.291 554.628 246.264 554.606 246.231C554.584 246.198 554.568 246.161 554.559 246.122C554.551 246.083 554.55 246.042 554.556 246.002C554.57 245.923 554.612 245.853 554.672 245.806C554.733 245.758 554.808 245.737 554.882 245.747C556.076 245.992 557.308 245.932 558.477 245.572C559.647 245.213 560.722 244.563 561.616 243.675C561.642 243.644 561.674 243.619 561.71 243.602C561.745 243.585 561.784 243.577 561.823 243.577C561.862 243.577 561.9 243.585 561.936 243.602C561.972 243.619 562.004 243.644 562.03 243.675C562.08 243.734 562.108 243.81 562.108 243.89C562.108 243.97 562.08 244.046 562.03 244.105C560.48 245.691 558.41 246.551 556.273 246.496Z" fill="#263238"/>
<path d="M581.744 244.615C580.564 246.773 578.646 248.347 576.401 248.999C573.441 249.812 571.961 246.926 572.878 243.93C573.663 241.236 576.179 237.554 579.154 238.048C579.8 238.175 580.406 238.473 580.919 238.915C581.432 239.357 581.835 239.929 582.091 240.58C582.348 241.231 582.451 241.941 582.39 242.645C582.329 243.349 582.107 244.026 581.744 244.615Z" fill="#FFB573"/>
<path d="M565.36 232.07C565.24 232.069 565.124 232.027 565.028 231.949C564.932 231.872 564.862 231.764 564.827 231.64C564.043 228.914 560.802 227.735 560.772 227.735C560.699 227.711 560.631 227.672 560.573 227.62C560.514 227.567 560.466 227.503 560.432 227.43C560.397 227.357 560.377 227.277 560.372 227.195C560.367 227.113 560.377 227.031 560.402 226.954C560.424 226.875 560.46 226.802 560.509 226.739C560.558 226.676 560.618 226.624 560.685 226.587C560.753 226.55 560.827 226.528 560.903 226.522C560.979 226.517 561.055 226.528 561.127 226.555C561.275 226.555 564.96 227.942 565.922 231.337C565.945 231.416 565.953 231.498 565.946 231.58C565.939 231.662 565.917 231.742 565.881 231.814C565.846 231.887 565.797 231.951 565.738 232.003C565.679 232.056 565.611 232.095 565.538 232.118L565.36 232.07Z" fill="#263238"/>
<path d="M547.334 225.647C547.235 225.645 547.138 225.617 547.053 225.564C546.967 225.511 546.896 225.435 546.845 225.344C546.771 225.2 546.752 225.03 546.794 224.872C546.836 224.714 546.934 224.579 547.067 224.499C547.847 223.991 548.728 223.692 549.636 223.625C550.545 223.558 551.456 223.727 552.292 224.116C552.426 224.191 552.528 224.32 552.575 224.475C552.622 224.63 552.611 224.799 552.543 224.945C552.474 225.09 552.354 225.2 552.21 225.25C552.066 225.301 551.909 225.289 551.774 225.216C551.106 224.922 550.383 224.8 549.663 224.861C548.943 224.922 548.247 225.164 547.63 225.567C547.541 225.625 547.438 225.653 547.334 225.647Z" fill="#263238"/>
<path d="M592.651 278.105C596.869 284.051 600.702 290.06 604.343 296.404C606.149 299.592 607.925 302.78 609.553 306.176C611.321 309.694 612.783 313.381 613.919 317.19C614.082 317.7 614.2 318.29 614.333 318.784L614.437 319.246L614.57 319.916C614.63 320.333 614.67 320.753 614.688 321.175C614.757 322.559 614.662 323.946 614.407 325.304C613.986 327.457 613.356 329.556 612.528 331.568C611.068 335.122 609.346 338.544 607.377 341.801C603.63 348.062 599.418 353.984 594.782 359.511C594.275 360.123 593.574 360.511 592.816 360.598C592.058 360.686 591.296 360.468 590.679 359.986C590.062 359.503 589.633 358.792 589.475 357.989C589.317 357.185 589.442 356.347 589.824 355.637V355.558C593.095 349.421 596.336 343.109 599.134 336.86C600.505 333.847 601.697 330.743 602.7 327.567C603.133 326.218 603.43 324.823 603.588 323.407C603.643 322.989 603.643 322.565 603.588 322.147V322.052V321.86C603.485 321.542 603.411 321.255 603.278 320.92C602.125 317.931 600.77 315.039 599.222 312.265C597.594 309.316 595.863 306.367 594.087 303.418C590.476 297.584 586.687 291.718 582.839 286.043C581.917 284.62 581.546 282.865 581.804 281.152C582.063 279.438 582.93 277.9 584.223 276.864C585.517 275.828 587.133 275.375 588.731 275.6C590.329 275.826 591.783 276.713 592.784 278.073L592.651 278.105Z" fill="#FFB573"/>
<path d="M560.076 231.688L557.871 230.54C557.871 230.54 558.744 232.724 560.076 231.688Z" fill="#263238"/>
<path d="M534.739 288.163C535.653 284.142 536.83 280.195 538.261 276.352C540.532 275.621 542.853 275.088 545.203 274.758C549.989 279.327 553.927 284.833 556.806 290.985C563.155 284.067 575.306 277.069 582.706 274.519C585.209 274.349 587.72 274.689 590.106 275.523C585.059 292.674 579.909 309.921 589.04 314.353C588.877 322.498 589.307 332.604 589.691 342.822C581.063 341.801 546.845 340.032 532.948 343.316C532.238 332.955 531.986 324.188 532.031 316.616C525.563 307.738 532.045 295.655 534.739 288.163Z" fill="#263238"/>
<mask id="mask0_423_39" style="mask-type:luminance" maskUnits="userSpaceOnUse" x="529" y="274" width="62" height="70">
<path d="M534.739 288.163C535.653 284.142 536.83 280.195 538.261 276.352C540.532 275.621 542.853 275.088 545.203 274.758C549.989 279.327 553.927 284.833 556.806 290.985C563.155 284.067 575.306 277.069 582.706 274.519C585.209 274.349 587.72 274.689 590.106 275.523C585.059 292.674 579.909 309.921 589.04 314.353C588.877 322.498 589.307 332.604 589.691 342.822C581.063 341.801 546.845 340.032 532.948 343.316C532.238 332.955 531.986 324.188 532.031 316.616C525.563 307.738 532.045 295.655 534.739 288.163Z" fill="white"/>
</mask>
<g mask="url(#mask0_423_39)">
<g opacity="0.2">
<path d="M548.34 320.059C548.263 320.069 548.189 320.101 548.127 320.151C548.065 320.202 548.016 320.269 547.985 320.346C546.936 323.517 546.967 326.986 548.074 330.133C547.053 329.209 546.046 328.3 545.114 327.376C545.947 325.456 546.27 323.325 546.045 321.22C545.82 319.115 545.057 317.118 543.841 315.453C543.794 315.387 543.733 315.336 543.664 315.302C543.594 315.269 543.517 315.255 543.441 315.261C543.363 315.268 543.288 315.298 543.225 315.349C543.162 315.4 543.114 315.469 543.086 315.548C542.003 318.807 542.071 322.382 543.279 325.59C541.947 324.283 540.674 322.976 539.505 321.717C540.379 319.788 540.73 317.632 540.518 315.498C540.306 313.363 539.539 311.337 538.306 309.65C538.259 309.585 538.198 309.534 538.128 309.5C538.059 309.467 537.982 309.453 537.906 309.459C537.828 309.466 537.753 309.496 537.69 309.547C537.627 309.598 537.579 309.667 537.551 309.746C536.475 313.012 536.543 316.589 537.743 319.804C535.716 317.525 534.029 315.453 532.771 313.731C532.319 311.804 531.42 310.031 530.16 308.579C528.9 307.126 527.318 306.042 525.563 305.426C525.492 305.413 525.418 305.418 525.349 305.441C525.28 305.464 525.216 305.504 525.164 305.559C525.112 305.613 525.073 305.68 525.05 305.754C525.026 305.828 525.02 305.907 525.03 305.984C526.362 313.046 531.187 314.273 532.164 314.448C532.859 315.389 533.644 316.425 534.591 317.541C532.271 316.421 529.691 316.088 527.191 316.584C527.115 316.603 527.046 316.644 526.991 316.704C526.936 316.763 526.898 316.837 526.88 316.919C526.858 316.998 526.854 317.082 526.87 317.162C526.886 317.243 526.92 317.318 526.969 317.381C528.241 318.944 529.894 320.093 531.74 320.698C533.586 321.304 535.553 321.342 537.418 320.808C538.247 321.733 539.135 322.673 540.067 323.646C536.933 322.68 533.587 322.894 530.58 324.251C530.509 324.292 530.449 324.353 530.408 324.427C530.366 324.502 530.344 324.587 530.344 324.674C530.344 324.761 530.366 324.846 530.408 324.92C530.449 324.995 530.509 325.056 530.58 325.096C532.27 326.229 534.206 326.866 536.195 326.941C538.185 327.017 540.157 326.529 541.917 325.527C543.16 326.786 544.477 328.045 545.839 329.304C542.806 327.83 539.375 327.615 536.204 328.699C536.131 328.731 536.066 328.783 536.017 328.85C535.967 328.917 535.935 328.997 535.923 329.081C535.915 329.164 535.926 329.248 535.954 329.326C535.983 329.403 536.028 329.472 536.086 329.528C537.644 330.887 539.52 331.755 541.508 332.036C543.496 332.318 545.517 332.001 547.349 331.122L547.467 331.042C547.514 330.989 547.544 330.922 547.556 330.851L549.228 332.317C549.28 332.392 549.352 332.448 549.435 332.476C550.323 333.242 551.226 333.991 552.144 334.724C552.224 334.798 552.327 334.839 552.432 334.839C552.538 334.839 552.641 334.798 552.721 334.724C552.755 334.673 552.78 334.615 552.793 334.553C552.806 334.492 552.808 334.428 552.799 334.366C552.789 334.304 552.768 334.244 552.737 334.191C552.706 334.137 552.665 334.091 552.617 334.055C551.774 333.369 550.93 332.684 550.116 331.966C550.885 330.068 551.162 327.98 550.917 325.925C550.672 323.871 549.914 321.926 548.725 320.298C548.686 320.226 548.63 320.165 548.562 320.123C548.495 320.081 548.418 320.059 548.34 320.059Z" fill="white"/>
<path d="M533.747 295.368C533.825 295.358 533.898 295.326 533.961 295.276C534.023 295.225 534.072 295.158 534.103 295.081C535.152 291.911 535.12 288.442 534.014 285.294C535.035 286.218 536.041 287.127 536.974 288.052C536.14 289.971 535.818 292.102 536.043 294.207C536.267 296.312 537.03 298.309 538.247 299.975C538.293 300.04 538.354 300.091 538.424 300.125C538.494 300.158 538.57 300.172 538.646 300.166C538.725 300.159 538.8 300.129 538.862 300.078C538.925 300.027 538.974 299.958 539.001 299.879C540.085 296.62 540.016 293.045 538.809 289.837C540.141 291.144 541.414 292.451 542.583 293.71C541.709 295.639 541.358 297.795 541.57 299.929C541.782 302.064 542.549 304.09 543.782 305.777C543.828 305.842 543.889 305.894 543.959 305.927C544.029 305.96 544.105 305.975 544.181 305.968C544.26 305.961 544.335 305.931 544.398 305.88C544.461 305.829 544.509 305.76 544.537 305.681C545.613 302.415 545.544 298.838 544.344 295.623C546.372 297.902 548.059 299.975 549.317 301.696C549.769 303.624 550.667 305.396 551.927 306.848C553.188 308.301 554.769 309.385 556.525 310.001C556.596 310.014 556.669 310.009 556.739 309.986C556.808 309.963 556.871 309.923 556.923 309.868C556.975 309.814 557.014 309.747 557.038 309.673C557.061 309.599 557.068 309.52 557.057 309.443C555.725 302.382 550.901 301.154 549.924 300.979C549.228 300.038 548.444 299.002 547.497 297.886C549.815 299.011 552.399 299.339 554.897 298.827C554.972 298.813 555.042 298.775 555.097 298.719C555.152 298.662 555.191 298.589 555.207 298.508C555.23 298.429 555.233 298.346 555.218 298.265C555.202 298.184 555.168 298.109 555.119 298.046C553.846 296.483 552.194 295.334 550.348 294.729C548.501 294.123 546.535 294.085 544.67 294.619C543.841 293.694 542.953 292.754 542.021 291.781C545.155 292.747 548.501 292.533 551.507 291.176C551.579 291.135 551.638 291.074 551.68 291C551.721 290.925 551.743 290.84 551.743 290.753C551.743 290.666 551.721 290.581 551.68 290.507C551.638 290.432 551.579 290.372 551.507 290.331C549.818 289.198 547.882 288.562 545.892 288.486C543.903 288.411 541.93 288.898 540.171 289.901C538.927 288.641 537.61 287.382 536.249 286.123C539.281 287.597 542.712 287.812 545.883 286.728C545.955 286.694 546.019 286.641 546.068 286.574C546.117 286.508 546.15 286.429 546.165 286.346C546.172 286.263 546.161 286.179 546.133 286.102C546.105 286.024 546.06 285.955 546.002 285.9C544.444 284.54 542.567 283.672 540.579 283.391C538.591 283.109 536.57 283.426 534.739 284.306L534.621 284.385C534.574 284.438 534.543 284.505 534.532 284.577L532.859 283.11C532.808 283.035 532.735 282.979 532.652 282.951C531.764 282.186 530.861 281.436 529.944 280.703C529.863 280.629 529.761 280.588 529.655 280.588C529.549 280.588 529.447 280.629 529.367 280.703C529.3 280.806 529.271 280.932 529.288 281.057C529.304 281.181 529.364 281.294 529.455 281.373C530.314 282.058 531.157 282.743 531.971 283.461C531.203 285.36 530.926 287.447 531.171 289.502C531.416 291.556 532.173 293.501 533.363 295.129C533.402 295.202 533.458 295.262 533.525 295.304C533.593 295.346 533.669 295.368 533.747 295.368Z" fill="white"/>
<path d="M579.376 331.695C579.301 331.707 579.229 331.737 579.168 331.784C579.106 331.831 579.055 331.894 579.021 331.966C577.984 335.139 578.015 338.603 579.109 341.753C578.088 340.845 577.082 339.92 576.149 338.996C576.983 337.079 577.306 334.95 577.081 332.848C576.856 330.745 576.093 328.751 574.877 327.089C574.831 327.023 574.77 326.971 574.7 326.938C574.631 326.905 574.554 326.892 574.478 326.9C574.403 326.908 574.33 326.937 574.267 326.984C574.205 327.031 574.155 327.094 574.122 327.168C573.046 330.434 573.114 334.011 574.314 337.226C572.982 335.903 571.709 334.612 570.54 333.353C571.418 331.428 571.771 329.274 571.559 327.141C571.347 325.008 570.578 322.984 569.341 321.302C569.298 321.234 569.237 321.179 569.167 321.145C569.096 321.112 569.018 321.1 568.942 321.111C568.866 321.121 568.794 321.151 568.732 321.198C568.67 321.246 568.62 321.309 568.587 321.382C567.51 324.648 567.579 328.225 568.779 331.44C566.751 329.177 565.064 327.089 563.806 325.367C563.349 323.442 562.449 321.672 561.189 320.221C559.93 318.769 558.351 317.683 556.599 317.062C556.527 317.047 556.454 317.05 556.384 317.072C556.314 317.095 556.251 317.135 556.199 317.19C556.145 317.247 556.105 317.318 556.082 317.396C556.059 317.473 556.053 317.556 556.066 317.636C557.398 324.682 562.237 325.909 563.199 326.084C563.895 327.025 564.679 328.077 565.627 329.193C563.307 328.072 560.726 327.739 558.227 328.236C558.152 328.258 558.084 328.301 558.03 328.359C557.975 328.418 557.936 328.491 557.916 328.571C557.893 328.647 557.89 328.729 557.905 328.807C557.921 328.885 557.955 328.958 558.005 329.017C559.27 330.591 560.922 331.747 562.77 332.354C564.619 332.96 566.589 332.991 568.453 332.444C569.282 333.369 570.17 334.325 571.103 335.298C567.969 334.323 564.62 334.537 561.616 335.903C561.548 335.947 561.491 336.007 561.45 336.079C561.409 336.152 561.385 336.233 561.379 336.318C561.377 336.402 561.397 336.485 561.436 336.558C561.475 336.631 561.532 336.692 561.601 336.732C563.29 337.866 565.225 338.504 567.214 338.583C569.203 338.661 571.176 338.177 572.938 337.179C574.181 338.422 575.498 339.681 576.86 340.956C573.827 339.482 570.396 339.267 567.225 340.351C567.151 340.383 567.087 340.435 567.037 340.502C566.988 340.569 566.956 340.649 566.944 340.733C566.935 340.815 566.947 340.899 566.978 340.975C567.009 341.05 567.059 341.116 567.121 341.164C568.679 342.523 570.556 343.391 572.544 343.672C574.532 343.954 576.553 343.637 578.384 342.758L578.488 342.662C578.531 342.61 578.566 342.551 578.591 342.487L580.264 343.953C580.31 344.027 580.378 344.083 580.456 344.112C581.344 344.878 582.247 345.627 583.165 346.376C583.245 346.45 583.347 346.491 583.453 346.491C583.559 346.491 583.661 346.45 583.742 346.376C583.812 346.275 583.843 346.147 583.826 346.021C583.809 345.896 583.747 345.783 583.653 345.706C582.795 345.021 581.966 344.32 581.137 343.618C581.909 341.721 582.189 339.634 581.947 337.579C581.705 335.524 580.949 333.579 579.761 331.95C579.722 331.876 579.667 331.813 579.599 331.768C579.532 331.723 579.455 331.698 579.376 331.695Z" fill="white"/>
<path d="M607.836 342.71C607.758 342.716 607.683 342.747 607.62 342.798C607.557 342.849 607.509 342.918 607.481 342.997C606.426 346.165 606.452 349.635 607.555 352.784C606.534 351.859 605.542 350.935 604.595 350.026C605.432 348.109 605.758 345.978 605.536 343.873C605.314 341.767 604.552 339.77 603.337 338.103C603.289 338.036 603.226 337.982 603.153 337.949C603.08 337.915 603.001 337.903 602.923 337.912C602.846 337.923 602.773 337.956 602.711 338.006C602.648 338.056 602.599 338.123 602.567 338.199C601.491 341.459 601.559 345.031 602.76 348.241C601.428 346.934 600.17 345.627 599.001 344.368C599.875 342.438 600.226 340.283 600.014 338.149C599.802 336.014 599.035 333.987 597.802 332.301C597.755 332.236 597.694 332.184 597.624 332.151C597.555 332.117 597.478 332.103 597.402 332.11C597.324 332.116 597.249 332.147 597.186 332.198C597.123 332.248 597.075 332.318 597.047 332.397C595.964 335.661 596.032 339.241 597.239 342.455C595.212 340.175 593.51 338.103 592.267 336.382C591.815 334.454 590.916 332.682 589.656 331.229C588.396 329.777 586.814 328.693 585.059 328.077C584.987 328.06 584.912 328.062 584.841 328.083C584.77 328.105 584.705 328.145 584.652 328.201C584.6 328.256 584.56 328.325 584.538 328.401C584.516 328.476 584.512 328.557 584.526 328.635C585.858 335.696 590.683 336.924 591.66 337.099C592.341 338.039 593.14 339.076 594.087 340.191C591.767 339.075 589.187 338.741 586.687 339.235C586.614 339.26 586.547 339.303 586.493 339.361C586.439 339.419 586.399 339.491 586.376 339.57C586.356 339.65 586.355 339.734 586.373 339.815C586.391 339.896 586.428 339.971 586.48 340.032C587.751 341.592 589.401 342.739 591.244 343.344C593.087 343.95 595.051 343.989 596.914 343.459C597.757 344.384 598.631 345.324 599.563 346.296C596.434 345.331 593.092 345.545 590.091 346.902C590.02 346.941 589.96 347 589.918 347.073C589.876 347.146 589.854 347.231 589.854 347.317C589.853 347.401 589.871 347.485 589.907 347.56C589.943 347.635 589.996 347.699 590.061 347.747C591.755 348.875 593.693 349.509 595.684 349.584C597.675 349.66 599.649 349.175 601.413 348.177C602.656 349.431 603.959 350.691 605.32 351.955C602.288 350.481 598.856 350.265 595.685 351.349C595.612 351.379 595.548 351.431 595.501 351.499C595.453 351.567 595.425 351.648 595.419 351.732C595.411 351.815 595.422 351.899 595.45 351.976C595.479 352.054 595.524 352.123 595.582 352.178C597.14 353.536 599.017 354.403 601.005 354.684C602.992 354.966 605.013 354.65 606.845 353.772C606.879 353.78 606.914 353.78 606.948 353.772C607.004 353.725 607.041 353.657 607.052 353.581L608.724 355.047C608.774 355.118 608.84 355.173 608.917 355.207C609.805 355.972 610.707 356.721 611.625 357.454C611.705 357.528 611.808 357.569 611.914 357.569C612.019 357.569 612.122 357.528 612.202 357.454C612.239 357.405 612.266 357.348 612.282 357.287C612.297 357.226 612.301 357.162 612.293 357.099C612.285 357.036 612.264 356.976 612.233 356.922C612.203 356.868 612.162 356.821 612.113 356.785L609.597 354.697C610.37 352.8 610.65 350.713 610.407 348.658C610.165 346.603 609.409 344.657 608.221 343.029C608.191 342.942 608.139 342.866 608.071 342.81C608.003 342.754 607.922 342.719 607.836 342.71Z" fill="white"/>
<path d="M542.761 344.511C542.684 344.518 542.611 344.547 542.549 344.595C542.486 344.642 542.437 344.707 542.405 344.782C541.35 347.95 541.376 351.42 542.479 354.569C541.458 353.661 540.467 352.736 539.519 351.812C540.357 349.894 540.682 347.763 540.46 345.658C540.238 343.552 539.477 341.555 538.261 339.889C538.213 339.824 538.15 339.773 538.078 339.742C538.007 339.711 537.929 339.699 537.852 339.709C537.775 339.718 537.702 339.748 537.639 339.797C537.576 339.845 537.525 339.909 537.492 339.984C536.416 343.25 536.484 346.827 537.684 350.042C536.352 348.719 535.094 347.428 533.925 346.169C534.799 344.24 535.15 342.084 534.938 339.95C534.726 337.815 533.959 335.789 532.726 334.102C532.681 334.036 532.62 333.985 532.549 333.954C532.479 333.923 532.402 333.914 532.327 333.927C532.249 333.93 532.175 333.958 532.112 334.006C532.049 334.054 532 334.121 531.971 334.198C530.888 337.463 530.957 341.042 532.164 344.256C530.411 342.325 528.751 340.298 527.191 338.183C526.734 336.258 525.834 334.488 524.574 333.037C523.315 331.585 521.736 330.499 519.983 329.878C519.91 329.863 519.834 329.866 519.762 329.888C519.69 329.91 519.624 329.951 519.569 330.006C519.522 330.064 519.487 330.133 519.466 330.207C519.446 330.281 519.441 330.359 519.451 330.436C520.783 337.498 525.607 338.725 526.584 338.9C527.265 339.841 528.064 340.877 529.011 342.088C526.695 340.956 524.111 340.622 521.611 341.132C521.539 341.152 521.472 341.192 521.418 341.248C521.363 341.304 521.323 341.374 521.301 341.451C521.28 341.531 521.279 341.615 521.297 341.696C521.315 341.777 521.352 341.851 521.404 341.913C522.666 343.487 524.315 344.643 526.161 345.25C528.008 345.856 529.976 345.888 531.838 345.34C532.682 346.265 533.555 347.221 534.487 348.193C531.36 347.212 528.013 347.426 525.015 348.799C524.945 348.835 524.886 348.891 524.844 348.962C524.802 349.032 524.779 349.114 524.778 349.198C524.776 349.282 524.793 349.367 524.83 349.442C524.866 349.517 524.92 349.581 524.986 349.628C526.677 350.762 528.615 351.4 530.606 351.478C532.598 351.556 534.573 351.072 536.337 350.074C537.581 351.318 538.883 352.577 540.245 353.836C537.21 352.366 533.779 352.156 530.61 353.246C530.538 353.275 530.476 353.325 530.429 353.389C530.382 353.454 530.352 353.531 530.343 353.613C530.333 353.696 530.343 353.781 530.371 353.859C530.4 353.937 530.446 354.006 530.506 354.059C532.065 355.417 533.941 356.284 535.929 356.565C537.916 356.847 539.937 356.531 541.769 355.653C541.803 355.661 541.838 355.661 541.873 355.653C541.925 355.61 541.962 355.548 541.976 355.478L543.648 356.944C543.698 357.015 543.765 357.07 543.841 357.104C544.744 357.869 545.632 358.618 546.549 359.367C546.63 359.441 546.732 359.482 546.838 359.482C546.944 359.482 547.046 359.441 547.127 359.367C547.163 359.318 547.191 359.261 547.206 359.2C547.222 359.138 547.226 359.075 547.217 359.012C547.209 358.949 547.189 358.889 547.158 358.835C547.127 358.781 547.086 358.734 547.038 358.698L544.522 356.61C545.294 354.71 545.574 352.62 545.331 350.563C545.089 348.506 544.333 346.557 543.145 344.926C543.138 344.818 543.096 344.717 543.025 344.641C542.954 344.565 542.86 344.519 542.761 344.511Z" fill="white"/>
<path d="M578.428 277.356C578.352 277.367 578.279 277.4 578.217 277.45C578.154 277.5 578.105 277.566 578.073 277.643C577.037 280.815 577.068 284.28 578.162 287.43C577.141 286.505 576.134 285.597 575.202 284.672C576.036 282.753 576.358 280.622 576.133 278.517C575.908 276.411 575.146 274.415 573.929 272.749C573.883 272.684 573.822 272.632 573.752 272.599C573.682 272.566 573.606 272.551 573.53 272.558C573.451 272.565 573.376 272.595 573.313 272.646C573.251 272.697 573.202 272.766 573.174 272.845C572.098 276.105 572.166 279.677 573.367 282.887C572.035 281.58 570.762 280.273 569.593 279.014C570.467 277.084 570.818 274.929 570.606 272.794C570.394 270.66 569.627 268.633 568.394 266.947C568.348 266.881 568.288 266.828 568.218 266.795C568.148 266.761 568.071 266.748 567.994 266.756C567.916 266.762 567.841 266.793 567.778 266.844C567.715 266.894 567.667 266.963 567.639 267.043C566.563 270.309 566.632 273.885 567.832 277.101C565.804 274.821 564.117 272.749 562.859 271.028C562.407 269.1 561.509 267.328 560.248 265.875C558.988 264.423 557.406 263.339 555.651 262.723C555.58 262.71 555.506 262.715 555.437 262.738C555.368 262.761 555.305 262.801 555.253 262.855C555.201 262.91 555.161 262.977 555.138 263.051C555.115 263.125 555.108 263.204 555.118 263.281C556.45 270.342 561.29 271.57 562.252 271.745C562.948 272.685 563.732 273.721 564.679 274.837C562.36 273.717 559.779 273.383 557.279 273.881C557.206 273.906 557.14 273.949 557.086 274.007C557.032 274.065 556.991 274.137 556.968 274.216C556.946 274.295 556.943 274.378 556.958 274.459C556.974 274.54 557.008 274.615 557.057 274.678C558.33 276.241 559.982 277.389 561.828 277.995C563.674 278.601 565.641 278.639 567.506 278.105C568.335 279.03 569.223 279.97 570.155 280.942C567.021 279.977 563.675 280.191 560.668 281.548C560.601 281.591 560.544 281.652 560.503 281.724C560.462 281.796 560.437 281.878 560.432 281.962C560.431 282.049 560.45 282.134 560.489 282.21C560.528 282.285 560.585 282.348 560.654 282.393C562.343 283.526 564.279 284.162 566.269 284.238C568.258 284.313 570.231 283.825 571.991 282.823C573.234 284.082 574.551 285.342 575.913 286.601C572.88 285.127 569.449 284.911 566.278 285.995C566.204 286.027 566.139 286.08 566.09 286.147C566.041 286.214 566.009 286.293 565.996 286.378C565.988 286.462 566 286.548 566.031 286.626C566.062 286.704 566.111 286.773 566.174 286.824C567.73 288.182 569.604 289.05 571.589 289.331C573.574 289.612 575.593 289.296 577.422 288.418L577.541 288.338C577.587 288.286 577.618 288.219 577.629 288.147L579.302 289.614C579.356 289.686 579.428 289.741 579.509 289.773C580.397 290.538 581.3 291.287 582.217 292.021C582.298 292.095 582.4 292.135 582.506 292.135C582.612 292.135 582.714 292.095 582.794 292.021C582.865 291.919 582.895 291.792 582.879 291.666C582.862 291.541 582.8 291.427 582.706 291.351C581.847 290.666 581.018 289.98 580.19 289.263C580.962 287.366 581.242 285.279 581 283.224C580.757 281.169 580.002 279.224 578.813 277.595C578.771 277.525 578.714 277.467 578.648 277.426C578.581 277.384 578.506 277.36 578.428 277.356Z" fill="white"/>
<path d="M564.369 307.642C564.445 307.635 564.518 307.606 564.58 307.558C564.643 307.511 564.692 307.446 564.724 307.371C565.779 304.202 565.753 300.733 564.65 297.584C565.671 298.492 566.663 299.417 567.61 300.341C566.773 302.259 566.447 304.389 566.669 306.495C566.891 308.6 567.652 310.598 568.868 312.264C568.916 312.329 568.979 312.379 569.051 312.411C569.122 312.442 569.2 312.454 569.277 312.444C569.354 312.435 569.427 312.405 569.49 312.356C569.553 312.308 569.604 312.244 569.637 312.169C570.713 308.903 570.645 305.326 569.445 302.111C570.777 303.428 572.035 304.719 573.219 305.984C572.345 307.913 571.994 310.069 572.206 312.203C572.418 314.338 573.185 316.364 574.418 318.051C574.466 318.115 574.529 318.166 574.601 318.197C574.672 318.229 574.75 318.24 574.827 318.231C574.904 318.221 574.977 318.191 575.04 318.143C575.103 318.094 575.154 318.03 575.187 317.955C576.266 314.688 576.192 311.109 574.98 307.897C576.733 309.828 578.393 311.855 579.953 313.97C580.41 315.897 581.312 317.669 582.574 319.121C583.837 320.573 585.42 321.657 587.175 322.275C587.247 322.29 587.32 322.287 587.39 322.265C587.46 322.242 587.523 322.202 587.575 322.147C587.626 322.088 587.663 322.017 587.684 321.939C587.705 321.862 587.708 321.78 587.693 321.701C586.376 314.655 581.537 313.428 580.56 313.253C579.879 312.312 579.08 311.276 578.133 310.065C580.449 311.197 583.033 311.531 585.533 311.021C585.605 311.001 585.672 310.961 585.726 310.905C585.78 310.849 585.821 310.779 585.843 310.702C585.864 310.622 585.865 310.538 585.847 310.457C585.828 310.376 585.792 310.301 585.74 310.24C584.478 308.666 582.829 307.509 580.982 306.903C579.136 306.297 577.168 306.265 575.306 306.813C574.477 305.888 573.589 304.932 572.657 303.96C575.784 304.941 579.131 304.727 582.129 303.354C582.2 303.315 582.26 303.256 582.302 303.183C582.344 303.11 582.366 303.025 582.365 302.939C582.37 302.856 582.353 302.774 582.317 302.7C582.28 302.627 582.225 302.566 582.158 302.525C580.466 301.391 578.529 300.753 576.538 300.675C574.546 300.597 572.571 301.081 570.807 302.079C569.563 300.835 568.261 299.576 566.899 298.317C569.935 299.78 573.364 299.99 576.534 298.907C576.606 298.878 576.668 298.828 576.715 298.764C576.762 298.699 576.792 298.622 576.801 298.54C576.814 298.457 576.806 298.371 576.777 298.292C576.748 298.214 576.7 298.145 576.638 298.094C575.081 296.731 573.204 295.861 571.216 295.579C569.227 295.298 567.205 295.616 565.375 296.5C565.341 296.492 565.306 296.492 565.271 296.5C565.228 296.552 565.193 296.611 565.168 296.675L563.495 295.209C563.449 295.134 563.381 295.079 563.303 295.049C562.415 294.284 561.512 293.455 560.595 292.786C560.514 292.712 560.412 292.671 560.306 292.671C560.2 292.671 560.098 292.712 560.017 292.786C559.947 292.887 559.916 293.015 559.933 293.14C559.95 293.266 560.012 293.379 560.106 293.455L562.622 295.543C561.85 297.443 561.57 299.533 561.813 301.59C562.055 303.647 562.81 305.595 563.999 307.227C564.012 307.329 564.055 307.424 564.122 307.498C564.188 307.573 564.274 307.623 564.369 307.642Z" fill="white"/>
</g>
</g>
<path d="M570.866 321.35L471.706 332.126C469.061 332.416 466.631 333.824 464.95 336.041C463.268 338.259 462.472 341.104 462.737 343.953L466.141 380.472C468.723 378.501 471.741 377.293 474.892 376.97C478.043 376.647 481.217 377.22 484.099 378.631C486.98 380.042 489.468 382.242 491.313 385.012C493.158 387.782 494.297 391.025 494.615 394.417C494.934 397.808 494.421 401.231 493.127 404.342C491.834 407.454 489.806 410.146 487.245 412.15C484.684 414.153 481.68 415.399 478.533 415.761C475.385 416.124 472.205 415.591 469.308 414.217L472.727 450.735C473 453.583 474.308 456.199 476.365 458.012C478.423 459.825 481.063 460.687 483.708 460.411L582.868 449.651C585.514 449.354 587.943 447.941 589.626 445.723C591.308 443.504 592.109 440.659 591.852 437.808L581.862 331.01C581.582 328.164 580.269 325.552 578.21 323.743C576.15 321.934 573.511 321.074 570.866 321.35Z" fill="#407BFF"/>
<path opacity="0.3" d="M570.866 321.35L471.706 332.126C469.061 332.416 466.631 333.824 464.95 336.041C463.268 338.259 462.472 341.104 462.737 343.953L466.141 380.472C468.723 378.501 471.741 377.293 474.892 376.97C478.043 376.647 481.217 377.22 484.099 378.631C486.98 380.042 489.468 382.242 491.313 385.012C493.158 387.782 494.297 391.025 494.615 394.417C494.934 397.808 494.421 401.231 493.127 404.342C491.834 407.454 489.806 410.146 487.245 412.15C484.684 414.153 481.68 415.399 478.533 415.761C475.385 416.124 472.205 415.591 469.308 414.217L472.727 450.735C473 453.583 474.308 456.199 476.365 458.012C478.423 459.825 481.063 460.687 483.708 460.411L582.868 449.651C585.514 449.354 587.943 447.941 589.626 445.723C591.308 443.504 592.109 440.659 591.852 437.808L581.862 331.01C581.582 328.164 580.269 325.552 578.21 323.743C576.15 321.934 573.511 321.074 570.866 321.35Z" fill="black"/>
<path d="M597.92 354.107L593.332 351.955L582.558 354.92C581.323 355.268 580.23 356.047 579.45 357.136L577.17 360.324C576.685 361.022 576.439 361.88 576.474 362.752C576.509 363.623 576.823 364.455 577.363 365.106L579.938 368.166C580.556 368.895 581.413 369.336 582.327 369.396C583.242 369.455 584.142 369.128 584.837 368.485L590.683 363.081C590.683 363.081 597.728 359.527 597.92 354.107Z" fill="#FFB573"/>
<path d="M504.517 334.198L509.283 333.545C509.925 333.466 510.526 333.164 510.994 332.683C511.461 332.202 511.77 331.57 511.873 330.883L512.524 326.802C512.611 326.316 512.592 325.815 512.468 325.338C512.344 324.862 512.119 324.423 511.81 324.056C511.501 323.69 511.117 323.406 510.689 323.226C510.261 323.047 509.799 322.978 509.342 323.024L503.777 323.454C502.994 323.5 502.26 323.878 501.736 324.505C501.212 325.133 500.94 325.959 500.98 326.802L501.128 331.106C501.136 331.558 501.234 332.004 501.414 332.412C501.594 332.821 501.854 333.184 502.174 333.476C502.495 333.769 502.869 333.984 503.273 334.109C503.677 334.233 504.101 334.264 504.517 334.198Z" fill="#FFB573"/>
<path d="M578.68 217.055C566.929 223.431 546.283 220.498 546.283 220.498C546.283 220.498 557.797 200.222 578.68 217.055Z" fill="#263238"/>
<path d="M371.894 621.485L365.989 654.592L351.041 650.703L356.946 617.595L371.894 621.485Z" fill="#7F3E3B"/>
<path d="M351.515 643.976L368.135 647.865C368.393 647.92 368.622 648.076 368.778 648.303C368.934 648.53 369.006 648.812 368.979 649.093L367.824 662.243C367.786 662.573 367.685 662.891 367.526 663.176C367.367 663.462 367.155 663.708 366.903 663.9C366.651 664.092 366.365 664.226 366.062 664.292C365.759 664.358 365.447 664.355 365.146 664.283C359.921 662.96 358.367 662.132 351.752 660.585C344.041 658.752 341.303 659.246 332.245 657.11C326.769 655.819 327.021 649.635 329.478 649.619C335.966 649.636 342.343 647.805 347.963 644.311C349.064 643.716 350.334 643.597 351.515 643.976Z" fill="#263238"/>
<path opacity="0.2" d="M371.909 621.5L368.86 638.556L353.898 634.667L356.946 617.595L371.909 621.5Z" fill="black"/>
<path d="M397.913 493.98C415.451 438.414 429.333 372.836 429.333 372.836L379.309 369.425C379.309 369.425 371.909 454.513 368.091 493.757C364.095 534.532 351.678 626.585 351.678 626.585L374.248 631.511C374.248 631.511 395.412 544.829 397.913 493.98Z" fill="#263238"/>
<path opacity="0.2" d="M406.26 403.76L418.396 419.923C415.303 432.404 411.692 446.432 407.725 460.762C405.449 441.863 404.958 422.765 406.26 403.76Z" fill="#263238"/>
<path d="M352.003 630.045L372.723 634.922C373.136 635.021 373.569 634.952 373.938 634.728C374.306 634.505 374.585 634.142 374.721 633.711L377 626.522C377.079 626.278 377.11 626.02 377.089 625.763C377.069 625.506 376.999 625.256 376.883 625.03C376.767 624.805 376.608 624.608 376.416 624.453C376.225 624.298 376.005 624.188 375.772 624.131L353.291 618.472C353.054 618.412 352.809 618.406 352.57 618.456C352.332 618.505 352.106 618.609 351.907 618.76C351.708 618.91 351.542 619.105 351.418 619.33C351.294 619.555 351.216 619.806 351.189 620.066L350.671 628.036C350.625 628.489 350.735 628.944 350.981 629.315C351.226 629.685 351.591 629.945 352.003 630.045Z" fill="#263238"/>
<path opacity="0.1" d="M352.003 630.045L372.723 634.922C373.136 635.021 373.569 634.952 373.938 634.728C374.306 634.505 374.585 634.142 374.721 633.711L377 626.522C377.079 626.278 377.11 626.02 377.089 625.763C377.069 625.506 376.999 625.256 376.883 625.03C376.767 624.805 376.608 624.608 376.416 624.453C376.225 624.298 376.005 624.188 375.772 624.131L353.291 618.472C353.054 618.412 352.809 618.406 352.57 618.456C352.332 618.505 352.106 618.609 351.907 618.76C351.708 618.91 351.542 619.105 351.418 619.33C351.294 619.555 351.216 619.806 351.189 620.066L350.671 628.036C350.625 628.489 350.735 628.944 350.981 629.315C351.226 629.685 351.591 629.945 352.003 630.045Z" fill="white"/>
<path d="M454.182 620.337L455.115 654.496L439.945 654.273L439.012 620.114L454.182 620.337Z" fill="#7F3E3B"/>
<path d="M439.56 647.26L455.692 647.515C455.954 647.513 456.206 647.617 456.401 647.806C456.595 647.994 456.717 648.254 456.743 648.535L458.045 661.669C458.07 662.002 458.03 662.336 457.928 662.651C457.825 662.966 457.663 663.254 457.451 663.497C457.239 663.74 456.983 663.933 456.698 664.063C456.412 664.193 456.105 664.257 455.796 664.252C450.438 664.076 448.751 663.598 441.987 663.486C434.084 663.343 432.382 664.411 423.117 664.268C417.508 664.172 416.605 658.051 419.003 657.509C425.369 656.139 431.286 652.983 436.156 648.359C437.119 647.54 438.337 647.146 439.56 647.26Z" fill="#263238"/>
<path opacity="0.2" d="M454.197 620.353L454.671 637.951L439.486 637.727L439.012 620.114L454.197 620.353Z" fill="black"/>
<path d="M450.408 492.849C446.116 434.397 449.742 402.867 443.438 373.841L397.913 370.796C397.913 370.796 412.047 456.713 419.846 495.574C427.646 534.436 436.038 628.833 436.038 628.833L458.415 629.136C458.415 629.136 461.153 538.453 450.408 492.849Z" fill="#263238"/>
<path d="M436.097 633.169L457.276 633.519C457.714 633.524 458.137 633.349 458.459 633.029C458.781 632.709 458.977 632.268 459.007 631.798L459.466 624.274C459.484 624.026 459.455 623.776 459.381 623.54C459.306 623.304 459.188 623.086 459.032 622.901C458.877 622.716 458.689 622.567 458.478 622.464C458.268 622.36 458.04 622.303 457.808 622.298L434.765 621.532C434.509 621.523 434.254 621.575 434.019 621.686C433.784 621.797 433.576 621.964 433.409 622.174C433.243 622.384 433.123 622.632 433.057 622.899C432.992 623.166 432.984 623.445 433.033 623.716L434.513 631.686C434.592 632.085 434.79 632.445 435.075 632.712C435.361 632.979 435.719 633.14 436.097 633.169Z" fill="#263238"/>
<path opacity="0.1" d="M436.097 633.169L457.276 633.519C457.714 633.524 458.137 633.349 458.459 633.029C458.781 632.709 458.977 632.268 459.007 631.798L459.466 624.274C459.484 624.026 459.455 623.776 459.381 623.54C459.306 623.304 459.188 623.086 459.032 622.901C458.877 622.716 458.689 622.567 458.478 622.464C458.268 622.36 458.04 622.303 457.808 622.298L434.765 621.532C434.509 621.523 434.254 621.575 434.019 621.686C433.784 621.797 433.576 621.964 433.409 622.174C433.243 622.384 433.123 622.632 433.057 622.899C432.992 623.166 432.984 623.445 433.033 623.716L434.513 631.686C434.592 632.085 434.79 632.445 435.075 632.712C435.361 632.979 435.719 633.14 436.097 633.169Z" fill="white"/>
<path d="M396.448 280.879C394.701 284.943 392.881 288.546 390.898 292.26C388.914 295.974 386.828 299.576 384.519 303.115C382.184 306.769 379.634 310.256 376.882 313.556C373.829 317.355 370.249 320.624 366.27 323.247L365.752 323.566C364.868 324.127 363.883 324.479 362.862 324.6C361.842 324.721 360.809 324.607 359.832 324.267C356.946 323.263 354.149 322.131 351.411 320.92C348.673 319.708 346.009 318.37 343.39 316.967C340.77 315.564 338.21 314.082 335.694 312.488C333.178 310.894 330.721 309.3 328.294 307.371C327.425 306.707 326.798 305.738 326.522 304.629C326.246 303.521 326.338 302.344 326.782 301.301C327.226 300.258 327.994 299.414 328.953 298.916C329.913 298.418 331.004 298.296 332.038 298.572H332.201C334.85 299.257 337.588 300.086 340.252 300.835L348.259 303.115C350.908 303.896 353.572 304.55 356.192 305.251C358.811 305.952 361.431 306.494 364.006 307.068L357.627 308.104C359.843 306.125 361.831 303.867 363.547 301.377C365.575 298.572 367.528 295.48 369.467 292.292C371.406 289.104 373.167 285.772 374.914 282.393C376.66 279.014 378.436 275.523 380.005 272.303L380.094 272.128C381.273 270.012 383.15 268.452 385.349 267.759C387.549 267.066 389.91 267.29 391.963 268.387C394.016 269.485 395.609 271.375 396.427 273.68C397.244 275.986 397.225 278.539 396.374 280.831L396.448 280.879Z" fill="#7F3E3B"/>
<path d="M400.088 253.016C382.417 255.183 369.008 284.657 369.008 284.657L387.242 305.554C387.242 305.554 395.367 295.129 404.099 281.947C413.63 267.585 414.074 251.31 400.088 253.016Z" fill="#407BFF"/>
<path d="M397.913 257.431C404.706 254.833 435.135 259.025 435.135 259.025C429.215 267.25 424.272 335.362 423.724 374.51C417.256 375.467 392.452 373.634 386.724 372.199C387.464 356.833 393.414 284.752 397.913 257.431Z" fill="white"/>
<path d="M378.273 278.089C379.071 271.006 382.257 264.485 387.226 259.766C392.194 255.047 398.599 252.457 405.224 252.49C417.938 252.599 430.608 254.105 443.038 256.985C444.974 257.426 446.808 258.281 448.432 259.499C450.056 260.717 451.436 262.273 452.492 264.076C453.547 265.879 454.256 267.891 454.577 269.994C454.898 272.097 454.824 274.248 454.36 276.32C444.992 318.641 447.463 358.793 444.962 377.475C436.045 381.006 426.573 382.631 417.079 382.257C417.079 382.257 417.301 366.142 419.388 338.932C421.045 317.302 424.02 266.437 430.147 257.989C430.147 257.989 408.184 254.801 401.391 257.367C396.344 288.052 392.644 380.998 392.644 381.014C381.899 380.185 376.838 373.745 377 371.832C374.825 334.23 375.92 300.134 378.273 278.089Z" fill="#407BFF"/>
<path d="M430.932 231.018C428.874 237.394 426.492 248.696 430.295 255.04C430.488 255.335 430.618 255.672 430.675 256.027C430.733 256.382 430.716 256.747 430.627 257.095C430.538 257.442 430.378 257.764 430.16 258.037C429.941 258.31 429.669 258.528 429.363 258.674C423.249 262.472 416.184 264.111 409.161 263.361C399.615 262.532 400.281 257.893 402.738 254.88C403.318 254.185 404.122 253.752 404.987 253.669C414 252.505 414.089 246.655 412.787 240.917L430.932 231.018Z" fill="#7F3E3B"/>
<path opacity="0.2" d="M423.532 235.083L412.802 240.965C413.141 242.323 413.335 243.719 413.379 245.125C417.286 245.125 422.821 242.304 423.458 239.068C423.785 237.766 423.81 236.398 423.532 235.083Z" fill="black"/>
<path d="M416.623 208.856C417.026 203.106 414.122 198.182 410.136 197.858C406.151 197.534 402.593 201.932 402.189 207.682C401.786 213.432 404.69 218.356 408.676 218.68C412.662 219.004 416.219 214.606 416.623 208.856Z" fill="#263238"/>
<path d="M436.733 213.596C434.75 226.173 434.173 233.648 427.69 239.498C417.937 248.281 404.247 240.853 402.767 227.894C401.42 216.242 404.884 197.608 416.694 193.846C428.504 190.084 438.716 201.003 436.733 213.596Z" fill="#7F3E3B"/>
<path d="M434.188 224.228C434.04 224.228 433.862 224.021 433.699 224.116C428.401 227.304 426.684 220.45 427.01 215.891C427.118 214.371 427.524 212.892 428.2 211.551C428.876 210.211 429.807 209.039 430.932 208.113C425.189 208.814 419.624 204.829 419.536 201.115C413.186 204.128 405.535 204.303 402.086 197.927C398.638 191.551 403.566 183.214 410.138 185.43C407.474 180.297 418.736 170.032 430.532 185.175C430.902 174.192 447.389 185.175 444.681 195.966C452.318 198.804 458.859 214.425 445.909 217.756C445.051 232.23 434.188 224.228 434.188 224.228Z" fill="#263238"/>
<path d="M440.433 228.181C438.64 230.55 436.081 232.099 433.27 232.517C429.718 232.947 428.934 229.058 430.754 225.519C432.397 222.331 436.215 218.282 439.382 219.526C442.55 220.769 442.742 225.152 440.433 228.181Z" fill="#7F3E3B"/>
<path d="M419.802 214.536C419.713 215.589 419.136 216.37 418.5 216.306C417.863 216.242 417.419 215.349 417.508 214.297C417.597 213.245 418.174 212.48 418.81 212.544C419.447 212.608 419.876 213.5 419.802 214.536Z" fill="#263238"/>
<path d="M408.332 213.166C408.243 214.202 407.666 214.983 407.03 214.919C406.393 214.855 405.964 213.963 406.038 212.926C406.112 211.89 406.704 211.093 407.34 211.157C407.977 211.221 408.48 212.114 408.332 213.166Z" fill="#263238"/>
<path d="M412.816 213.755C411.402 216.811 409.604 219.643 407.474 222.172C408.088 222.748 408.811 223.174 409.593 223.419C410.375 223.664 411.197 223.722 412.002 223.59L412.816 213.755Z" fill="#630F0F"/>
<path d="M414.992 228.659C416.067 228.741 417.145 228.586 418.163 228.205C419.18 227.824 420.116 227.225 420.912 226.444C420.938 226.414 420.959 226.38 420.973 226.342C420.987 226.304 420.993 226.264 420.993 226.223C420.992 226.182 420.984 226.142 420.969 226.105C420.954 226.067 420.932 226.034 420.905 226.005C420.877 225.977 420.845 225.955 420.81 225.94C420.775 225.925 420.737 225.918 420.7 225.919C420.662 225.919 420.624 225.928 420.59 225.944C420.555 225.961 420.524 225.984 420.498 226.013C419.596 226.872 418.519 227.489 417.353 227.813C416.188 228.137 414.968 228.16 413.793 227.878C413.757 227.869 413.72 227.868 413.683 227.875C413.647 227.882 413.612 227.898 413.581 227.92C413.551 227.943 413.525 227.972 413.505 228.006C413.486 228.04 413.473 228.078 413.468 228.117C413.454 228.197 413.47 228.28 413.511 228.348C413.552 228.416 413.616 228.465 413.69 228.484C414.163 228.564 414.578 228.627 414.992 228.659Z" fill="#263238"/>
<path d="M423.591 212.002C423.683 212.025 423.779 212.025 423.872 212.002C423.941 211.969 424.003 211.922 424.054 211.863C424.106 211.805 424.146 211.735 424.172 211.659C424.198 211.584 424.21 211.503 424.207 211.422C424.203 211.341 424.185 211.262 424.153 211.189C423.806 210.287 423.265 209.487 422.576 208.852C421.887 208.218 421.068 207.768 420.187 207.539C420.038 207.516 419.887 207.556 419.765 207.651C419.643 207.747 419.561 207.889 419.536 208.049C419.514 208.209 419.552 208.372 419.64 208.503C419.729 208.634 419.861 208.723 420.009 208.75C420.704 208.943 421.347 209.309 421.887 209.819C422.427 210.328 422.848 210.967 423.117 211.683C423.167 211.773 423.235 211.849 423.318 211.905C423.4 211.96 423.494 211.994 423.591 212.002Z" fill="#263238"/>
<path d="M403.522 208.081C403.614 208.107 403.71 208.109 403.803 208.087C403.896 208.065 403.982 208.019 404.055 207.953C404.582 207.439 405.215 207.065 405.901 206.863C406.588 206.661 407.309 206.635 408.006 206.79C408.15 206.834 408.303 206.815 408.434 206.737C408.564 206.66 408.661 206.529 408.702 206.375C408.744 206.219 408.727 206.051 408.655 205.908C408.583 205.765 408.462 205.658 408.317 205.61C407.437 205.394 406.521 205.41 405.647 205.657C404.774 205.904 403.968 206.375 403.3 207.029C403.247 207.085 403.205 207.152 403.177 207.226C403.148 207.3 403.133 207.379 403.133 207.459C403.133 207.539 403.148 207.618 403.177 207.692C403.205 207.766 403.247 207.833 403.3 207.889C403.357 207.974 403.433 208.04 403.522 208.081Z" fill="#263238"/>
<path d="M457.882 275.459C458.844 277.483 459.629 279.237 460.398 281.134C461.168 283.031 461.878 284.864 462.648 286.745C464.128 290.506 465.416 294.332 466.629 298.205C469.097 306.04 470.988 314.072 472.283 322.227L472.682 325.415L472.89 327.009V327.392V328.093C472.89 328.603 472.964 329.113 472.964 329.687C472.906 332.592 472.37 335.464 471.38 338.167C469.906 342.295 468.031 346.244 465.786 349.947C463.747 353.413 461.539 356.76 459.17 359.973C456.849 363.171 454.379 366.241 451.77 369.17C451.02 370.025 450.011 370.562 448.925 370.682C447.839 370.803 446.748 370.5 445.852 369.828C444.956 369.157 444.314 368.161 444.042 367.022C443.77 365.883 443.886 364.677 444.37 363.623V363.496C447.434 356.625 450.675 349.676 453.25 342.901C453.916 341.212 454.508 339.522 455.026 337.88C455.542 336.347 455.972 334.782 456.314 333.194C456.554 332.206 456.639 331.183 456.565 330.165L456.491 329.846L456.21 328.523L455.662 325.893C453.955 318.755 451.865 311.73 449.402 304.852C448.218 301.346 446.871 297.887 445.569 294.412C444.918 292.69 444.222 290.969 443.526 289.263L441.454 284.29L441.336 284.003C440.296 281.657 440.164 278.961 440.969 276.51C441.774 274.059 443.45 272.052 445.628 270.932C447.807 269.812 450.309 269.669 452.585 270.536C454.861 271.403 456.724 273.208 457.764 275.555L457.882 275.459Z" fill="#7F3E3B"/>
<path d="M444.562 257.431C464.276 262.787 469.722 289.933 469.722 289.933L445.243 308.837C445.243 308.837 439.175 301.999 437.34 285.932C436.496 278.265 440.566 257.224 444.562 257.431Z" fill="#407BFF"/>
<path d="M447.596 360.244L436.2 364.835L444.932 377.427C444.932 377.427 454.774 371.928 452.91 365.823L447.596 360.244Z" fill="#7F3E3B"/>
<path d="M427.72 366.62C424.651 366.064 421.5 366.372 418.574 367.513L424.227 331.329C424.664 328.503 424.044 325.606 422.501 323.273C420.959 320.939 418.62 319.36 415.998 318.88L317.726 301.059C315.107 300.592 312.424 301.261 310.261 302.918C308.098 304.576 306.632 307.088 306.182 309.905L300.44 346.169C303.363 345.013 306.518 344.705 309.586 345.276C312.315 345.769 314.903 346.93 317.149 348.669C319.396 350.409 321.243 352.68 322.546 355.309C323.85 357.937 324.576 360.853 324.67 363.831C324.763 366.81 324.22 369.771 323.083 372.488C321.947 375.205 320.246 377.605 318.113 379.503C315.98 381.401 313.471 382.747 310.779 383.437C308.087 384.126 305.284 384.141 302.586 383.481C299.888 382.82 297.366 381.502 295.216 379.627L289.547 415.811C289.11 418.636 289.731 421.533 291.273 423.867C292.816 426.2 295.154 427.78 297.776 428.26L396.048 446.081C398.669 446.548 401.355 445.88 403.52 444.222C405.685 442.565 407.154 440.053 407.607 437.234L413.26 401.034C415.414 402.879 417.93 404.171 420.616 404.811C423.303 405.45 426.09 405.421 428.765 404.726C431.44 404.03 433.932 402.687 436.052 400.797C438.171 398.908 439.863 396.522 440.997 393.822C442.132 391.122 442.679 388.179 442.598 385.216C442.517 382.254 441.809 379.351 440.529 376.728C439.248 374.104 437.429 371.83 435.209 370.079C432.99 368.327 430.428 367.144 427.72 366.62Z" fill="#407BFF"/>
<path opacity="0.6" d="M427.72 366.62C424.651 366.064 421.5 366.372 418.574 367.513L424.227 331.329C424.664 328.503 424.044 325.606 422.501 323.273C420.959 320.939 418.62 319.36 415.998 318.88L317.726 301.059C315.107 300.592 312.424 301.261 310.261 302.918C308.098 304.576 306.632 307.088 306.182 309.905L300.44 346.169C303.363 345.013 306.518 344.705 309.586 345.276C312.315 345.769 314.903 346.93 317.149 348.669C319.396 350.409 321.243 352.68 322.546 355.309C323.85 357.937 324.576 360.853 324.67 363.831C324.763 366.81 324.22 369.771 323.083 372.488C321.947 375.205 320.246 377.605 318.113 379.503C315.98 381.401 313.471 382.747 310.779 383.437C308.087 384.126 305.284 384.141 302.586 383.481C299.888 382.82 297.366 381.502 295.216 379.627L289.547 415.811C289.11 418.636 289.731 421.533 291.273 423.867C292.816 426.2 295.154 427.78 297.776 428.26L396.048 446.081C398.669 446.548 401.355 445.88 403.52 444.222C405.685 442.565 407.154 440.053 407.607 437.234L413.26 401.034C415.414 402.879 417.93 404.171 420.616 404.811C423.303 405.45 426.09 405.421 428.765 404.726C431.44 404.03 433.932 402.687 436.052 400.797C438.171 398.908 439.863 396.522 440.997 393.822C442.132 391.122 442.679 388.179 442.598 385.216C442.517 382.254 441.809 379.351 440.529 376.728C439.248 374.104 437.429 371.83 435.209 370.079C432.99 368.327 430.428 367.144 427.72 366.62Z" fill="white"/>
<path d="M430.872 377.204L434.617 381.062C435.337 381.808 436.282 382.254 437.28 382.318C438.278 382.382 439.265 382.061 440.063 381.412L444.932 377.475L436.2 364.883L430.798 370.717C430.401 371.144 430.087 371.652 429.875 372.212C429.663 372.772 429.557 373.372 429.564 373.977C429.571 374.582 429.69 375.179 429.915 375.733C430.14 376.288 430.465 376.788 430.872 377.204Z" fill="#7F3E3B"/>
<path d="M321.16 304.454L322.522 299.018C322.75 298.379 323.158 297.832 323.688 297.455C324.219 297.078 324.846 296.889 325.482 296.914C327.41 296.829 329.335 297.149 331.15 297.855L338.846 300.915L338.476 304.294C338.165 307.196 335.161 309.618 331.757 309.73C329.472 309.763 327.191 309.501 324.964 308.949L324.135 308.758C323.663 308.722 323.204 308.577 322.789 308.332C322.374 308.088 322.013 307.749 321.731 307.341C321.448 306.932 321.251 306.463 321.152 305.964C321.054 305.466 321.057 304.951 321.16 304.454Z" fill="#7F3E3B"/>
<path d="M199.933 229.424C204.862 223.256 212.276 207.236 198.335 201.115C188.049 196.588 166.219 198.899 153.683 219.924C145.114 223.112 142.583 243.643 162.371 247.963C182.158 252.282 199.933 229.424 199.933 229.424Z" fill="#263238"/>
<path d="M244.644 624.976L222.03 627L225.863 655.628L244.762 653.97L244.644 624.976Z" fill="#FFC3BD"/>
<path opacity="0.2" d="M244.644 624.991L222.015 627.016L224.176 643.052L244.718 641.218L244.644 624.991Z" fill="black"/>
<path d="M201.413 540.701C192.533 504.039 169.534 460.395 184.112 425.12L247.471 424.913C247.471 424.913 249.04 497.519 249.484 531.711C249.928 567.464 247.16 634.731 247.16 634.731L221.245 636.851C221.245 636.851 203.485 581.81 201.413 540.701Z" fill="#407BFF"/>
<path d="M219.958 637.95L247.959 635.735C248.198 635.713 248.422 635.599 248.59 635.415C248.758 635.231 248.86 634.988 248.877 634.731L249.469 623.573C249.479 623.418 249.457 623.263 249.404 623.118C249.352 622.973 249.27 622.843 249.165 622.736C249.061 622.63 248.936 622.549 248.799 622.501C248.662 622.453 248.517 622.438 248.374 622.457L217.294 626.904C217.152 626.921 217.016 626.971 216.895 627.051C216.774 627.131 216.671 627.238 216.593 627.366C216.515 627.495 216.465 627.64 216.445 627.791C216.425 627.943 216.437 628.097 216.48 628.243L218.936 637.201C219.005 637.431 219.143 637.629 219.328 637.765C219.513 637.9 219.734 637.966 219.958 637.95Z" fill="#263238"/>
<path opacity="0.2" d="M183.89 459.821C183.645 468.48 183.971 477.146 184.867 485.755C187.96 497.28 191.912 508.821 195.464 520.01C200.111 488.322 200.126 451.389 183.89 459.821Z" fill="black"/>
<path d="M160.935 626.761L138.232 627L138.202 655.851L157.176 655.692L160.935 626.761Z" fill="#FFC3BD"/>
<path d="M136.412 651.42C136.434 651.259 136.487 651.105 136.568 650.968C136.649 650.831 136.755 650.714 136.881 650.624C137.006 650.534 137.148 650.473 137.296 650.445C137.445 650.418 137.597 650.424 137.744 650.463C143.442 652.902 154.246 651.037 158.33 650.192C158.781 650.092 159.246 650.093 159.697 650.194C160.148 650.296 160.574 650.496 160.95 650.782C164.291 653.091 167.912 654.893 171.71 656.138C172.524 658.484 172.729 661.025 172.302 663.486H134.029C135.109 659.536 135.905 655.502 136.412 651.42Z" fill="#263238"/>
<path d="M223.362 651.42C223.384 651.259 223.437 651.105 223.518 650.968C223.599 650.831 223.705 650.714 223.831 650.624C223.956 650.534 224.098 650.473 224.246 650.445C224.395 650.418 224.547 650.424 224.694 650.463C230.392 652.902 241.196 651.037 245.28 650.192C245.731 650.092 246.196 650.093 246.647 650.194C247.098 650.296 247.524 650.496 247.9 650.782C252.251 654.098 263.854 656.138 263.854 656.138C264.669 658.484 264.869 661.026 264.432 663.486H220.979C222.059 659.536 222.855 655.502 223.362 651.42Z" fill="#263238"/>
<path opacity="0.2" d="M160.935 626.777L138.217 627L138.202 643.163L158.834 642.972L160.935 626.777Z" fill="black"/>
<path d="M135.035 528.841C131.957 491.813 122.307 441.937 133.259 424.913H207.407C207.407 424.913 192.296 498.747 186.095 532.922C179.657 568.452 161.142 636.675 161.142 636.675L136.589 636.755C136.589 636.755 127.28 571.114 135.035 528.841Z" fill="#407BFF"/>
<path opacity="0.2" d="M139.49 629.184C139.33 629.181 139.176 629.124 139.048 629.021C138.92 628.918 138.826 628.774 138.78 628.61C137.018 622.234 137.3 548.989 141.74 528.937C141.74 526.291 141.222 521.094 140.63 514.511C138.602 492.195 134.843 450.751 140.452 427.24C140.501 427.028 140.626 426.847 140.799 426.734C140.973 426.622 141.181 426.589 141.377 426.642C141.573 426.695 141.742 426.829 141.846 427.016C141.95 427.203 141.981 427.427 141.932 427.638C136.382 450.895 140.126 492.179 142.139 514.368C142.746 521.063 143.234 526.339 143.264 529.017C143.271 529.085 143.271 529.155 143.264 529.224C139.002 548.192 138.587 621.995 140.304 628.163C140.359 628.364 140.339 628.581 140.248 628.766C140.157 628.95 140.001 629.089 139.816 629.152C139.712 629.196 139.599 629.207 139.49 629.184Z" fill="white"/>
<path d="M134.887 637.743H162.696C162.919 637.75 163.136 637.67 163.307 637.518C163.479 637.365 163.593 637.151 163.629 636.915L165.464 626.283C165.49 626.122 165.483 625.956 165.443 625.799C165.403 625.641 165.33 625.495 165.231 625.372C165.132 625.248 165.008 625.15 164.869 625.084C164.73 625.018 164.58 624.987 164.428 624.991L134.147 626.442C134.019 626.446 133.894 626.478 133.778 626.536C133.662 626.594 133.559 626.678 133.474 626.781C133.389 626.884 133.325 627.005 133.286 627.136C133.246 627.267 133.232 627.405 133.244 627.542L133.866 636.723C133.888 637 134.005 637.257 134.194 637.446C134.382 637.634 134.63 637.741 134.887 637.743Z" fill="#263238"/>
<path d="M232.597 295.942C234.077 302.318 235.438 308.694 236.756 315.07C238.073 321.446 239.316 327.822 240.47 334.198L242.246 343.762L243.904 353.326C245.044 359.702 246.05 366.173 247.086 372.613L244.674 366.795C244.996 367.988 245.691 369.024 246.642 369.728C248.536 371.107 250.671 372.056 252.917 372.518C255.911 373.262 258.964 373.694 262.034 373.809C263.677 373.904 265.364 373.968 267.066 373.936C267.91 373.936 268.768 373.936 269.626 373.936C270.485 373.936 271.417 373.936 272.009 373.936L274.111 374.096C275.879 374.218 277.563 374.956 278.907 376.199C280.252 377.441 281.185 379.121 281.566 380.985C281.947 382.849 281.755 384.796 281.019 386.532C280.283 388.268 279.043 389.699 277.485 390.61C276.301 391.311 275.458 391.837 274.451 392.395C273.445 392.953 272.512 393.431 271.491 393.989C269.508 394.913 267.48 395.79 265.379 396.523C263.246 397.276 261.077 397.904 258.882 398.404C256.569 398.901 254.232 399.252 251.881 399.456C249.342 399.651 246.792 399.608 244.259 399.329C241.444 399.074 238.67 398.442 236.001 397.448C233.006 396.373 230.163 394.861 227.55 392.953C224.795 390.897 222.341 388.41 220.268 385.572C219.374 384.376 218.71 382.999 218.315 381.524L217.856 379.754C216.228 373.474 214.556 367.21 213.016 360.897L210.663 351.461L208.428 341.993C206.948 335.617 205.468 329.336 204.122 322.992C202.775 316.648 201.428 310.24 200.259 303.864C199.421 299.302 200.269 294.567 202.623 290.668C204.977 286.769 208.651 284.013 212.863 282.987C217.075 281.961 221.492 282.746 225.175 285.174C228.858 287.603 231.515 291.483 232.582 295.99L232.597 295.942Z" fill="#FFC3BD"/>
<path d="M270.973 375.514L271.284 385.812C275.147 395.806 286.217 388.219 286.217 388.219L292.907 386.896C294.071 386.576 295.094 385.823 295.793 384.77C296.491 383.717 296.822 382.431 296.725 381.141L296.548 373.936C296.592 372.449 296.096 371.002 295.164 369.903C294.233 368.804 292.939 368.141 291.56 368.054L285.64 368.182C283.912 368.214 282.219 368.707 280.712 369.617L270.973 375.514Z" fill="#FFC3BD"/>
<path d="M221.26 278.185C234.876 285.9 243.771 313.125 243.771 313.125C240.9 325.877 229.326 349.134 218.611 348.99C218.611 348.99 202.878 327.136 201.176 311.324C199.104 292.212 193.732 262.595 221.26 278.185Z" fill="#263238"/>
<path d="M208.68 273.658C187.667 271.506 166.497 271.87 145.558 274.742C133.452 276.575 124.838 284.688 126.318 311.404C129.278 365.6 124.69 407.841 131.084 427.32C131.084 427.32 224.205 456.012 250.756 428.515C257.209 363.304 235.483 309.172 225.596 286.649C224.048 283.103 221.679 280.045 218.716 277.77C215.754 275.495 212.297 274.079 208.68 273.658Z" fill="#263238"/>
<path d="M201.68 279.587C199.267 277.037 196.736 278.519 195.567 274.678C195.052 271.662 195.522 268.547 196.899 265.863L168.172 249.158C168.735 260.539 169.164 269.529 164.472 274.056C163.111 282.536 177.792 291 197.343 291.128C209.79 291.208 205.158 283.254 201.68 279.587Z" fill="#FFC3BD"/>
<path opacity="0.2" d="M196.47 266.82L173.796 260.715C179.524 270.422 189.84 275.73 195.39 273.387C195.231 271.135 195.603 268.876 196.47 266.82Z" fill="black"/>
<path d="M187.087 211.125C172.08 207.539 159.115 220.96 162.016 235.593C164.916 250.226 167.21 260.109 176.608 265.082C195.286 274.997 204.403 265.433 205.927 250.146C207.304 236.374 202.316 214.744 187.087 211.125Z" fill="#FFC3BD"/>
<path opacity="0.2" d="M184.142 237.108C182.378 236.632 180.512 236.924 178.947 237.92C180.711 238.021 182.477 237.744 184.142 237.108Z" fill="black"/>
<path opacity="0.2" d="M184.245 238.462C183.416 238.42 182.588 238.576 181.821 238.917C181.053 239.259 180.365 239.778 179.805 240.439C181.401 240.135 182.916 239.46 184.245 238.462Z" fill="black"/>
<path d="M163.91 247.963C172.302 249.987 175.75 245.46 175.75 240.391C175.75 235.003 171.029 225.902 165.849 224.228C167.699 212.273 198.29 229.01 195.375 212.448C195.375 212.448 194.546 209.611 186.643 208.017C178.74 206.423 157.62 211.556 159.1 228.564C160.58 245.572 163.91 247.963 163.91 247.963Z" fill="#263238"/>
<path d="M153.224 220.769C155.279 216.33 155.858 211.267 154.867 206.423C154.867 206.423 164.073 212.974 153.224 220.769Z" fill="#263238"/>
<path d="M191.823 252.505C192.451 252.455 193.074 252.353 193.688 252.203C193.735 252.191 193.781 252.17 193.821 252.14C193.861 252.109 193.895 252.071 193.921 252.027C193.947 251.982 193.965 251.933 193.973 251.881C193.981 251.829 193.98 251.776 193.969 251.724C193.96 251.672 193.942 251.622 193.914 251.578C193.887 251.533 193.851 251.496 193.809 251.467C193.767 251.439 193.72 251.42 193.671 251.412C193.622 251.404 193.573 251.407 193.525 251.422C191.988 251.825 190.385 251.837 188.843 251.455C187.301 251.073 185.864 250.308 184.645 249.222C184.61 249.183 184.569 249.153 184.523 249.132C184.477 249.111 184.428 249.1 184.378 249.1C184.329 249.1 184.279 249.111 184.234 249.132C184.188 249.153 184.147 249.183 184.112 249.222C184.043 249.299 184.005 249.402 184.005 249.509C184.005 249.616 184.043 249.718 184.112 249.796C185.166 250.775 186.391 251.519 187.715 251.984C189.039 252.449 190.435 252.627 191.823 252.505Z" fill="#263238"/>
<path d="M158.597 248.664C159.557 250.066 160.765 251.25 162.152 252.147C163.539 253.045 165.077 253.638 166.678 253.892C170.984 254.53 172.598 250.242 170.94 246.193C169.46 242.543 165.434 237.825 161.35 239.036C157.265 240.248 156.258 245.173 158.597 248.664Z" fill="#FFC3BD"/>
<path d="M186.584 237.267C186.761 238.558 187.531 239.514 188.315 239.387C189.1 239.259 189.603 238.096 189.425 236.805C189.248 235.513 188.493 234.573 187.708 234.701C186.924 234.828 186.48 235.912 186.584 237.267Z" fill="#263238"/>
<path d="M200.688 235.226C200.866 236.534 201.635 237.474 202.42 237.346C203.204 237.219 203.707 236.071 203.53 234.78C203.352 233.489 202.597 232.533 201.813 232.66C201.028 232.788 200.525 233.935 200.688 235.226Z" fill="#263238"/>
<path d="M195.36 236.932L196.041 247.867C196.041 247.867 199.371 248.489 201.176 246.416C200.03 242.767 198.026 239.5 195.36 236.932Z" fill="#ED847E"/>
<path d="M181.936 234.318C181.815 234.354 181.687 234.353 181.566 234.317C181.445 234.28 181.336 234.209 181.249 234.111C181.163 234.013 181.103 233.892 181.075 233.76C181.048 233.628 181.054 233.49 181.093 233.362C181.374 232.177 181.913 231.081 182.664 230.163C183.415 229.246 184.358 228.534 185.414 228.085C185.593 228.025 185.786 228.043 185.953 228.136C186.119 228.228 186.245 228.388 186.302 228.58C186.359 228.774 186.342 228.985 186.257 229.166C186.171 229.348 186.023 229.486 185.844 229.552C185.009 229.918 184.268 230.492 183.679 231.226C183.09 231.96 182.67 232.834 182.454 233.776C182.421 233.908 182.355 234.028 182.264 234.123C182.173 234.219 182.06 234.286 181.936 234.318Z" fill="#263238"/>
<path d="M205.32 229.424C205.203 229.436 205.086 229.414 204.979 229.361C204.872 229.308 204.781 229.225 204.714 229.121C204.207 228.33 203.531 227.68 202.743 227.228C201.955 226.776 201.078 226.534 200.185 226.523C199.988 226.523 199.8 226.439 199.661 226.29C199.523 226.14 199.445 225.938 199.445 225.726C199.445 225.515 199.523 225.312 199.661 225.163C199.8 225.013 199.988 224.929 200.185 224.929C201.312 224.919 202.425 225.205 203.428 225.76C204.43 226.315 205.293 227.124 205.942 228.117C205.996 228.199 206.035 228.291 206.057 228.389C206.078 228.487 206.081 228.588 206.066 228.688C206.051 228.787 206.018 228.882 205.969 228.967C205.919 229.052 205.855 229.127 205.779 229.185C205.722 229.257 205.652 229.315 205.573 229.356C205.494 229.397 205.408 229.421 205.32 229.424Z" fill="#263238"/>
<path d="M291.56 333.672C288.461 333.907 285.473 335.006 282.887 336.86L280.208 300.198C279.989 297.346 278.732 294.703 276.711 292.846C274.69 290.989 272.069 290.067 269.419 290.283L170.067 298.716C167.42 298.956 164.969 300.311 163.245 302.487C161.521 304.663 160.665 307.483 160.861 310.336L168.705 417.341C168.917 420.196 170.172 422.844 172.195 424.703C174.218 426.562 176.843 427.48 179.494 427.256L278.832 418.808C281.482 418.576 283.94 417.223 285.668 415.046C287.395 412.869 288.253 410.043 288.052 407.187L285.359 370.605C288.18 372.029 291.297 372.633 294.402 372.358C298.861 371.55 302.877 368.972 305.659 365.132C308.44 361.292 309.785 356.469 309.429 351.614C309.072 346.759 307.04 342.223 303.732 338.902C300.425 335.581 296.082 333.715 291.56 333.672Z" fill="#407BFF"/>
<path d="M147.497 319.039L146.017 321.972L144.315 325.256C143.22 327.487 142.095 329.719 141.074 331.982C139.021 336.393 137.184 340.915 135.568 345.531C134.784 347.763 134.088 349.979 133.57 352.162C132.979 354.253 132.514 356.383 132.179 358.538C131.558 362.005 131.453 365.556 131.868 369.059L128.464 362.683C129.881 364.776 131.571 366.639 133.481 368.214C135.992 370.372 138.627 372.358 141.37 374.16C144.226 376.136 147.29 378.033 150.368 379.93L155.074 382.751C156.554 383.708 158.33 384.664 159.736 385.589L160.447 386.051C162.018 387.076 163.232 388.63 163.903 390.472C164.574 392.314 164.664 394.342 164.159 396.245C163.655 398.147 162.583 399.819 161.11 401.001C159.637 402.183 157.844 402.811 156.007 402.788C153.757 402.788 151.833 402.628 149.761 402.453C147.689 402.278 145.721 402.007 143.708 401.656C139.617 400.994 135.569 400.057 131.587 398.851C127.372 397.579 123.264 395.931 119.303 393.925C114.621 391.603 110.318 388.481 106.56 384.68C105.208 383.291 104.192 381.567 103.6 379.659L103.186 378.288C100.868 370.717 100.002 362.718 100.64 354.777C101.143 347.858 102.374 341.024 104.31 334.405C106.113 328.186 108.35 322.122 111 316.265C112.288 313.396 113.605 310.559 115.085 307.801C115.81 306.415 116.565 305.028 117.334 303.657L118.548 301.585L119.184 300.533L119.954 299.305C122.332 295.43 126.019 292.707 130.232 291.715C134.445 290.722 138.851 291.539 142.513 293.991C146.176 296.443 148.806 300.337 149.844 304.845C150.883 309.353 150.248 314.119 148.074 318.13L147.497 319.039Z" fill="#FFC3BD"/>
<path d="M135.938 278.185C111.4 292.308 102.253 323.853 102.253 323.853C107.108 333.815 136.382 344.575 147.393 341.642C147.393 341.642 157.946 320.92 160.121 302.398C162.134 285.23 150.309 269.912 135.938 278.185Z" fill="#263238"/>
<path d="M153.106 387.342L153.609 397.639C157.664 407.554 168.587 399.727 168.587 399.727L175.262 398.261C176.419 397.917 177.427 397.142 178.104 396.074C178.781 395.006 179.085 393.713 178.962 392.427L178.666 385.238C178.702 383.741 178.192 382.289 177.246 381.192C176.3 380.096 174.992 379.442 173.604 379.372L167.684 379.627C165.953 379.712 164.27 380.26 162.785 381.221L153.106 387.342Z" fill="#FFC3BD"/>
</svg>
