<svg width="540" height="1021" viewBox="0 0 540 1021" fill="none" xmlns="http://www.w3.org/2000/svg">
<path d="M312.214 984.945C312.214 984.945 38.7218 982.857 38.2219 982.853C37.7219 982.849 45.609 15.0017 45.609 15.0017C45.609 15.0017 352.895 17.347 306.469 16.9927C260.043 16.6383 -15.7869 323.278 211.93 497.728C439.646 672.178 103.312 921.055 312.214 984.945Z" fill="url(#paint0_linear_387_5)"/>
<path d="M487.687 985.252C487.687 985.252 331.325 984.834 252.894 984.624C174.463 984.415 180.04 958.43 180.115 930.43C180.19 902.43 199.31 857.481 251.012 782.119C302.713 706.756 289.678 620.96 124.81 483.28C-40.0589 345.6 213.27 31.125 255.483 15.5426L489.093 16.1667C488.073 10.7492 123.548 456.484 412.754 423.661C701.96 390.837 330.541 799.397 487.687 985.252Z" fill="url(#paint1_linear_387_5)"/>
<defs>
<linearGradient id="paint0_linear_387_5" x1="179.922" y1="983.935" x2="187.31" y2="16.0829" gradientUnits="userSpaceOnUse">
<stop stop-color="#F25157"/>
<stop offset="1" stop-color="#F38A61"/>
</linearGradient>
<linearGradient id="paint1_linear_387_5" x1="276.579" y1="984.688" x2="279.168" y2="15.6055" gradientUnits="userSpaceOnUse">
<stop stop-color="#40BFC1"/>
<stop offset="1" stop-color="#F25157"/>
</linearGradient>
</defs>
</svg>
