<svg width="671" height="1023" viewBox="0 0 671 1023" fill="none" xmlns="http://www.w3.org/2000/svg">
<path d="M275 16C275 16 548.5 16.0003 549 16.0003C549.5 16.0003 549 985 549 985C549 985 241.705 985 288.132 985C334.559 985 608.041 675.907 379 503C149.959 330.093 484.383 78.3657 275 16Z" fill="url(#paint0_linear_387_5)"/>
<path d="M101.783 16C101.783 16 258.146 16 336.577 16C415.008 16 409.5 42 409.5 70C409.5 98 390.5 143 339 218.5C287.5 294 300.764 379.761 466 517C631.236 654.239 378.747 969.39 336.577 985.085H102.966C104 990.5 467.333 543.793 178.216 577.389C-110.901 610.984 259.425 201.434 101.783 16Z" fill="url(#paint1_linear_387_5)"/>
<defs>
<linearGradient id="paint0_linear_387_5" x1="407.295" y1="16" x2="407.295" y2="985" gradientUnits="userSpaceOnUse">
<stop stop-color="#F25157"/>
<stop offset="1" stop-color="#F38A61"/>
</linearGradient>
<linearGradient id="paint1_linear_387_5" x1="312.892" y1="16" x2="312.892" y2="985.086" gradientUnits="userSpaceOnUse">
<stop stop-color="#40BFC1"/>
<stop offset="1" stop-color="#F25157"/>
</linearGradient>
</defs>
</svg>
